<svg xmlns="http://www.w3.org/2000/svg" xmlns:xlink="http://www.w3.org/1999/xlink" width="500" zoomAndPan="magnify" viewBox="0 0 375 374.999991" height="500" preserveAspectRatio="xMidYMid meet" version="1.0"><defs><clipPath id="867bb3c754"><path d="M 76 20.15625 L 340 20.15625 L 340 330 L 76 330 Z M 76 20.15625 " clip-rule="nonzero"/></clipPath><clipPath id="8fe3be4a1c"><path d="M 68 20.15625 L 332 20.15625 L 332 329 L 68 329 Z M 68 20.15625 " clip-rule="nonzero"/></clipPath><clipPath id="62520ac33d"><path d="M 81 20.15625 L 333 20.15625 L 333 330 L 81 330 Z M 81 20.15625 " clip-rule="nonzero"/></clipPath></defs><path fill="#c1ff72" d="M 111.011719 337.113281 C 126.902344 344.183594 157.320312 354.652344 195.152344 350.445312 C 243.691406 345.046875 281.964844 318.320312 303.464844 292.324219 C 374.824219 206.0625 328.726562 48.144531 261.507812 27.234375 C 249.3125 23.441406 237.550781 24.507812 223.078125 25.820312 C 177.046875 29.992188 163.367188 51.984375 114.492188 66.769531 C 70.015625 80.230469 65.007812 66.960938 45.234375 79.546875 C 2.339844 106.847656 0.179688 185.644531 20.742188 239.867188 C 28.644531 260.695312 52.871094 311.234375 111.011719 337.113281 " fill-opacity="1" fillRule="nonzero"/><g clip-path="url(#867bb3c754)"><path fill="#016b0f" d="M 312.269531 329.601562 L 84.121094 328.875 C 79.800781 328.875 76.378906 325.230469 76.65625 320.921875 L 95.347656 27.863281 C 95.597656 23.925781 98.867188 20.863281 102.8125 20.863281 L 331.546875 20.15625 C 335.863281 20.15625 339.898438 24.503906 339.625 28.8125 L 320.933594 321.875 C 320.679688 325.808594 316.21875 329.601562 312.269531 329.601562 " fill-opacity="1" fillRule="nonzero"/></g><g clip-path="url(#8fe3be4a1c)"><path fill="#ffffff" d="M 305.785156 328.875 L 76.4375 328.875 C 72.121094 328.875 68.699219 325.230469 68.972656 320.921875 L 87.664062 27.863281 C 87.917969 23.925781 91.183594 20.863281 95.128906 20.863281 L 324.480469 20.863281 C 328.796875 20.863281 332.214844 24.507812 331.941406 28.816406 L 313.25 321.875 C 313 325.808594 309.730469 328.875 305.785156 328.875 " fill-opacity="1" fillRule="nonzero"/></g><g clip-path="url(#62520ac33d)"><path fill="#000000" d="M 305.785156 329.476562 L 82.441406 329.476562 C 82.109375 329.476562 81.839844 329.207031 81.839844 328.875 C 81.839844 328.542969 82.109375 328.273438 82.441406 328.273438 L 305.785156 328.273438 C 309.40625 328.273438 312.421875 325.445312 312.652344 321.835938 L 331.34375 28.777344 C 331.46875 26.859375 330.808594 25.035156 329.496094 23.632812 C 328.179688 22.234375 326.398438 21.460938 324.476562 21.460938 L 95.128906 21.460938 C 91.511719 21.460938 88.496094 24.292969 88.265625 27.898438 L 83.242188 106.613281 C 83.222656 106.945312 82.933594 107.195312 82.605469 107.175781 C 82.277344 107.152344 82.023438 106.871094 82.046875 106.539062 L 87.066406 27.824219 C 87.335938 23.582031 90.878906 20.261719 95.128906 20.261719 L 324.476562 20.261719 C 326.734375 20.261719 328.828125 21.167969 330.371094 22.8125 C 331.914062 24.457031 332.6875 26.601562 332.542969 28.851562 L 313.851562 321.914062 C 313.582031 326.152344 310.039062 329.476562 305.785156 329.476562 " fill-opacity="1" fillRule="nonzero"/></g><path fill="#7ed957" d="M 297.582031 319.394531 L 84.730469 319.394531 C 80.765625 319.394531 77.625 316.050781 77.878906 312.097656 L 95.542969 35.773438 C 95.773438 32.164062 98.773438 29.351562 102.394531 29.351562 L 315.246094 29.351562 C 319.210938 29.351562 322.351562 32.695312 322.097656 36.648438 L 304.433594 312.972656 C 304.203125 316.582031 301.203125 319.394531 297.582031 319.394531 " fill-opacity="1" fillRule="nonzero"/><path fill="#ffffff" d="M 144.351562 106.902344 C 144.339844 106.902344 144.328125 106.898438 144.3125 106.898438 C 143.984375 106.878906 143.730469 106.59375 143.753906 106.261719 L 145.777344 73.945312 C 146.117188 68.566406 150.605469 64.351562 156 64.351562 L 209.359375 64.351562 C 209.691406 64.351562 209.957031 64.621094 209.957031 64.949219 C 209.957031 65.28125 209.691406 65.550781 209.359375 65.550781 L 156 65.550781 C 151.238281 65.550781 147.273438 69.273438 146.976562 74.023438 L 144.949219 106.335938 C 144.929688 106.65625 144.664062 106.902344 144.351562 106.902344 " fill-opacity="1" fillRule="nonzero"/><path fill="#ffffff" d="M 142.046875 143.699219 C 142.03125 143.699219 142.019531 143.699219 142.007812 143.699219 C 141.675781 143.679688 141.425781 143.394531 141.445312 143.0625 L 142.902344 119.820312 C 142.921875 119.492188 143.210938 119.242188 143.539062 119.261719 C 143.871094 119.28125 144.121094 119.566406 144.101562 119.898438 L 142.644531 143.136719 C 142.625 143.457031 142.359375 143.699219 142.046875 143.699219 " fill-opacity="1" fillRule="nonzero"/><path fill="#016b0f" d="M 148.953125 223.996094 L 125.410156 223.996094 C 121.351562 223.996094 117.585938 222.371094 114.804688 219.421875 C 112.023438 216.472656 110.625 212.617188 110.867188 208.570312 L 111.421875 199.234375 C 111.441406 198.902344 111.730469 198.652344 112.058594 198.671875 C 112.386719 198.691406 112.640625 198.972656 112.621094 199.304688 L 112.0625 208.640625 C 111.84375 212.355469 113.125 215.890625 115.679688 218.597656 C 118.230469 221.308594 121.6875 222.796875 125.410156 222.796875 L 148.953125 222.796875 C 149.285156 222.796875 149.554688 223.066406 149.554688 223.398438 C 149.554688 223.730469 149.285156 223.996094 148.953125 223.996094 " fill-opacity="1" fillRule="nonzero"/><path fill="#016b0f" d="M 113.808594 169.925781 C 113.796875 169.925781 113.785156 169.921875 113.773438 169.921875 C 113.441406 169.902344 113.1875 169.617188 113.210938 169.289062 L 119.453125 64.601562 C 119.863281 57.734375 125.574219 52.355469 132.457031 52.355469 L 183.757812 52.355469 C 184.089844 52.355469 184.359375 52.625 184.359375 52.953125 C 184.359375 53.285156 184.089844 53.554688 183.757812 53.554688 L 132.457031 53.554688 C 126.207031 53.554688 121.023438 58.4375 120.652344 64.671875 L 114.40625 169.359375 C 114.386719 169.679688 114.125 169.925781 113.808594 169.925781 " fill-opacity="1" fillRule="nonzero"/><path fill="#016b0f" d="M 177.789062 131.996094 C 177.773438 131.996094 177.757812 131.992188 177.746094 131.992188 C 177.414062 131.96875 177.164062 131.679688 177.1875 131.351562 L 179.261719 102.679688 C 179.585938 98.222656 183.335938 94.734375 187.804688 94.734375 L 202.15625 94.734375 C 202.492188 94.734375 202.757812 95.003906 202.757812 95.335938 C 202.757812 95.664062 202.492188 95.933594 202.15625 95.933594 L 187.804688 95.933594 C 183.960938 95.933594 180.734375 98.9375 180.460938 102.765625 L 178.386719 131.4375 C 178.363281 131.753906 178.101562 131.996094 177.789062 131.996094 " fill-opacity="1" fillRule="nonzero"/><path fill="#ffffff" d="M 267.742188 199.085938 L 244.5625 199.085938 C 244.230469 199.085938 243.960938 198.816406 243.960938 198.484375 C 243.960938 198.15625 244.230469 197.886719 244.5625 197.886719 L 267.742188 197.886719 C 271.574219 197.886719 275.058594 195.476562 276.40625 191.894531 L 289.664062 156.726562 C 289.777344 156.414062 290.128906 156.253906 290.4375 156.375 C 290.746094 156.488281 290.90625 156.835938 290.785156 157.144531 L 277.53125 192.316406 C 276.003906 196.367188 272.070312 199.085938 267.742188 199.085938 " fill-opacity="1" fillRule="nonzero"/><path fill="#016b0f" d="M 159.757812 137.085938 C 159.75 137.085938 159.738281 137.085938 159.722656 137.085938 C 159.390625 137.066406 159.140625 136.78125 159.160156 136.449219 L 162.117188 88.265625 C 162.40625 83.597656 166.292969 79.941406 170.96875 79.941406 L 194.957031 79.941406 C 195.289062 79.941406 195.558594 80.210938 195.558594 80.542969 C 195.558594 80.871094 195.289062 81.140625 194.957031 81.140625 L 170.96875 81.140625 C 166.925781 81.140625 163.5625 84.300781 163.316406 88.335938 L 160.355469 136.523438 C 160.339844 136.839844 160.074219 137.085938 159.757812 137.085938 " fill-opacity="1" fillRule="nonzero"/><path fill="#016b0f" d="M 257.996094 185.3125 L 249.761719 185.3125 C 249.429688 185.3125 249.164062 185.042969 249.164062 184.714844 C 249.164062 184.382812 249.429688 184.113281 249.761719 184.113281 L 257.996094 184.113281 C 260.71875 184.113281 263.171875 182.394531 264.105469 179.839844 L 272.625 156.546875 C 272.738281 156.234375 273.082031 156.074219 273.394531 156.1875 C 273.703125 156.300781 273.863281 156.644531 273.75 156.957031 L 265.234375 180.253906 C 264.128906 183.277344 261.222656 185.3125 257.996094 185.3125 " fill-opacity="1" fillRule="nonzero"/><path fill="#016b0f" d="M 279.167969 213.078125 L 240.960938 213.078125 C 240.632812 213.078125 240.363281 212.808594 240.363281 212.480469 C 240.363281 212.148438 240.632812 211.878906 240.960938 211.878906 L 279.167969 211.878906 C 283.15625 211.878906 286.742188 209.503906 288.296875 205.832031 L 299.65625 179.007812 C 299.785156 178.703125 300.136719 178.558594 300.441406 178.691406 C 300.746094 178.816406 300.890625 179.167969 300.761719 179.476562 L 289.402344 206.300781 C 287.65625 210.417969 283.640625 213.078125 279.167969 213.078125 " fill-opacity="1" fillRule="nonzero"/><path fill="#ffffff" d="M 294.6875 155.320312 C 294.6875 157.292969 293.085938 158.890625 291.113281 158.890625 C 289.140625 158.890625 287.542969 157.292969 287.542969 155.320312 C 287.542969 153.347656 289.140625 151.75 291.113281 151.75 C 293.085938 151.75 294.6875 153.347656 294.6875 155.320312 " fill-opacity="1" fillRule="nonzero"/><path fill="#016b0f" d="M 278.152344 153.972656 C 278.152344 155.945312 276.550781 157.542969 274.578125 157.542969 C 272.601562 157.542969 271.003906 155.945312 271.003906 153.972656 C 271.003906 152 272.601562 150.402344 274.578125 150.402344 C 276.550781 150.402344 278.152344 152 278.152344 153.972656 " fill-opacity="1" fillRule="nonzero"/><path fill="#016b0f" d="M 304.84375 176.507812 C 304.84375 178.480469 303.246094 180.082031 301.273438 180.082031 C 299.300781 180.082031 297.699219 178.480469 297.699219 176.507812 C 297.699219 174.539062 299.300781 172.941406 301.273438 172.941406 C 303.246094 172.941406 304.84375 174.539062 304.84375 176.507812 " fill-opacity="1" fillRule="nonzero"/><path fill="#ffffff" d="M 212.933594 64.949219 C 212.933594 66.921875 211.332031 68.519531 209.359375 68.519531 C 207.386719 68.519531 205.785156 66.921875 205.785156 64.949219 C 205.785156 62.976562 207.386719 61.378906 209.359375 61.378906 C 211.332031 61.378906 212.933594 62.976562 212.933594 64.949219 " fill-opacity="1" fillRule="nonzero"/><path fill="#016b0f" d="M 198.644531 80.566406 C 198.644531 82.542969 197.046875 84.140625 195.070312 84.140625 C 193.097656 84.140625 191.496094 82.542969 191.496094 80.566406 C 191.496094 78.597656 193.097656 76.996094 195.070312 76.996094 C 197.046875 76.996094 198.644531 78.597656 198.644531 80.566406 " fill-opacity="1" fillRule="nonzero"/><path fill="#016b0f" d="M 206.382812 95.46875 C 206.382812 97.441406 204.78125 99.039062 202.808594 99.039062 C 200.835938 99.039062 199.234375 97.441406 199.234375 95.46875 C 199.234375 93.496094 200.835938 91.898438 202.808594 91.898438 C 204.78125 91.898438 206.382812 93.496094 206.382812 95.46875 " fill-opacity="1" fillRule="nonzero"/><path fill="#016b0f" d="M 187.570312 52.980469 C 187.570312 54.953125 185.96875 56.554688 183.996094 56.554688 C 182.023438 56.554688 180.421875 54.953125 180.421875 52.980469 C 180.421875 51.007812 182.023438 49.410156 183.996094 49.410156 C 185.96875 49.410156 187.570312 51.007812 187.570312 52.980469 " fill-opacity="1" fillRule="nonzero"/><path fill="#c1ff72" d="M 264.785156 61.148438 L 265.105469 56.042969 C 265.28125 53.277344 263.085938 50.9375 260.3125 50.9375 L 226.195312 50.9375 C 223.660156 50.9375 221.5625 52.902344 221.402344 55.429688 L 217.25 127.632812 C 217.074219 130.398438 219.273438 132.738281 222.042969 132.738281 L 298.933594 134.351562 C 301.464844 134.351562 303.5625 132.382812 303.726562 129.855469 L 307.207031 66.253906 C 307.386719 63.488281 305.1875 61.148438 302.414062 61.148438 L 264.785156 61.148438 " fill-opacity="1" fillRule="nonzero"/><path fill="#000000" d="M 226.195312 51.535156 C 223.984375 51.535156 222.140625 53.265625 222 55.46875 L 217.851562 127.667969 C 217.777344 128.839844 218.175781 129.957031 218.980469 130.8125 C 219.78125 131.667969 220.871094 132.140625 222.042969 132.140625 L 298.945312 133.753906 C 301.144531 133.753906 302.988281 132.023438 303.128906 129.816406 L 306.609375 66.222656 C 306.683594 65.042969 306.285156 63.929688 305.480469 63.074219 C 304.675781 62.21875 303.585938 61.746094 302.414062 61.746094 L 264.785156 61.746094 C 264.617188 61.746094 264.460938 61.679688 264.34375 61.558594 C 264.230469 61.4375 264.171875 61.273438 264.183594 61.109375 L 264.507812 56.003906 C 264.582031 54.835938 264.179688 53.71875 263.378906 52.863281 C 262.574219 52.007812 261.488281 51.535156 260.3125 51.535156 Z M 298.933594 134.953125 L 222.035156 133.339844 C 220.535156 133.339844 219.136719 132.734375 218.101562 131.632812 C 217.070312 130.53125 216.554688 129.097656 216.652344 127.59375 L 220.800781 55.394531 C 220.984375 52.558594 223.351562 50.335938 226.195312 50.335938 L 260.3125 50.335938 C 261.820312 50.335938 263.21875 50.941406 264.253906 52.042969 C 265.285156 53.140625 265.800781 54.578125 265.703125 56.082031 L 265.421875 60.546875 L 302.414062 60.546875 C 303.921875 60.546875 305.320312 61.152344 306.355469 62.253906 C 307.386719 63.351562 307.902344 64.785156 307.808594 66.289062 L 304.324219 129.890625 C 304.144531 132.730469 301.777344 134.953125 298.933594 134.953125 " fill-opacity="1" fillRule="nonzero"/><path fill="#ffffff" d="M 292.921875 129.71875 L 297.066406 77.476562 L 289.5625 69.347656 L 234.132812 69.347656 C 231.308594 69.347656 228.96875 71.527344 228.773438 74.339844 L 224.890625 129.71875 L 292.921875 129.71875 " fill-opacity="1" fillRule="nonzero"/><path fill="#000000" d="M 225.535156 129.121094 L 292.363281 129.121094 L 296.445312 77.691406 L 289.300781 69.949219 L 234.132812 69.949219 C 231.632812 69.949219 229.546875 71.894531 229.371094 74.382812 Z M 293.476562 130.320312 L 224.246094 130.320312 L 228.175781 74.300781 C 228.390625 71.1875 231.007812 68.75 234.132812 68.75 L 289.828125 68.75 L 297.683594 77.265625 L 293.476562 130.320312 " fill-opacity="1" fillRule="nonzero"/><path fill="#000000" d="M 297.0625 78.078125 C 297.058594 78.078125 297.050781 78.078125 297.046875 78.078125 L 288.578125 77.824219 C 288.410156 77.820312 288.257812 77.746094 288.148438 77.625 C 288.035156 77.5 287.980469 77.335938 287.996094 77.175781 L 288.628906 69.847656 C 288.65625 69.515625 288.949219 69.273438 289.28125 69.300781 C 289.609375 69.328125 289.851562 69.617188 289.824219 69.949219 L 289.246094 76.644531 L 297.082031 76.878906 C 297.410156 76.890625 297.675781 77.164062 297.664062 77.496094 C 297.65625 77.820312 297.386719 78.078125 297.0625 78.078125 " fill-opacity="1" fillRule="nonzero"/><path fill="#7ed957" d="M 281.765625 87.9375 L 238.5625 87.9375 C 238.230469 87.9375 237.960938 87.671875 237.960938 87.339844 C 237.960938 87.007812 238.230469 86.738281 238.5625 86.738281 L 281.765625 86.738281 C 282.09375 86.738281 282.363281 87.007812 282.363281 87.339844 C 282.363281 87.671875 282.09375 87.9375 281.765625 87.9375 " fill-opacity="1" fillRule="nonzero"/><path fill="#7ed957" d="M 282.164062 82.738281 L 238.964844 82.738281 C 238.628906 82.738281 238.363281 82.472656 238.363281 82.140625 C 238.363281 81.808594 238.628906 81.542969 238.964844 81.542969 L 282.164062 81.542969 C 282.5 81.542969 282.765625 81.808594 282.765625 82.140625 C 282.765625 82.472656 282.5 82.738281 282.164062 82.738281 " fill-opacity="1" fillRule="nonzero"/><path fill="#7ed957" d="M 282.964844 77.546875 L 262.5625 77.546875 C 262.230469 77.546875 261.960938 77.277344 261.960938 76.945312 C 261.960938 76.613281 262.230469 76.347656 262.5625 76.347656 L 282.964844 76.347656 C 283.296875 76.347656 283.5625 76.613281 283.5625 76.945312 C 283.5625 77.277344 283.296875 77.546875 282.964844 77.546875 " fill-opacity="1" fillRule="nonzero"/><path fill="#7ed957" d="M 251.761719 77.546875 L 239.761719 77.546875 C 239.429688 77.546875 239.160156 77.277344 239.160156 76.945312 C 239.160156 76.613281 239.429688 76.347656 239.761719 76.347656 L 251.761719 76.347656 C 252.09375 76.347656 252.363281 76.613281 252.363281 76.945312 C 252.363281 77.277344 252.09375 77.546875 251.761719 77.546875 " fill-opacity="1" fillRule="nonzero"/><path fill="#c1ff72" d="M 298.773438 134.574219 L 221.785156 134.574219 C 219.394531 134.574219 217.371094 133.195312 217.027344 131.328125 L 210.910156 98.144531 C 210.484375 95.859375 212.734375 93.8125 215.664062 93.8125 L 292.652344 93.8125 C 295.039062 93.8125 297.0625 95.191406 297.40625 97.054688 L 303.527344 130.238281 C 303.949219 132.527344 301.703125 134.574219 298.773438 134.574219 " fill-opacity="1" fillRule="nonzero"/><path fill="#000000" d="M 298.773438 135.171875 L 244.410156 135.171875 C 244.078125 135.171875 243.8125 134.90625 243.8125 134.574219 C 243.8125 134.242188 244.078125 133.976562 244.410156 133.976562 L 298.773438 133.976562 C 300.222656 133.976562 301.550781 133.417969 302.328125 132.476562 C 302.703125 132.03125 303.113281 131.296875 302.9375 130.347656 L 296.816406 97.164062 C 296.527344 95.59375 294.738281 94.410156 292.652344 94.410156 L 215.664062 94.410156 C 214.214844 94.410156 212.882812 94.972656 212.105469 95.90625 C 211.734375 96.355469 211.324219 97.089844 211.5 98.035156 L 214.367188 113.597656 C 214.429688 113.921875 214.214844 114.234375 213.886719 114.296875 C 213.5625 114.355469 213.246094 114.140625 213.1875 113.816406 L 210.316406 98.253906 C 210.117188 97.160156 210.421875 96.050781 211.183594 95.140625 C 212.1875 93.933594 213.859375 93.210938 215.664062 93.210938 L 292.652344 93.210938 C 295.351562 93.210938 297.597656 94.785156 297.996094 96.945312 L 304.117188 130.132812 C 304.320312 131.226562 304.011719 132.332031 303.253906 133.246094 C 302.246094 134.453125 300.574219 135.171875 298.773438 135.171875 " fill-opacity="1" fillRule="nonzero"/><path fill="#016b0f" d="M 234.277344 293.140625 C 226.257812 293.828125 219.199219 287.878906 218.511719 279.859375 C 217.828125 271.84375 223.777344 264.785156 231.804688 264.101562 C 239.828125 263.417969 246.886719 269.367188 247.566406 277.382812 C 248.253906 285.402344 242.304688 292.457031 234.277344 293.140625 Z M 260.460938 270.089844 C 260.386719 269.753906 260.085938 269.519531 259.742188 269.519531 L 254.761719 269.539062 C 254.472656 269.539062 254.210938 269.367188 254.09375 269.101562 C 253.691406 268.210938 253.238281 267.351562 252.738281 266.53125 C 252.585938 266.285156 252.589844 265.976562 252.753906 265.738281 L 255.5625 261.628906 C 255.753906 261.347656 255.726562 260.964844 255.492188 260.714844 L 252.523438 257.523438 C 252.289062 257.269531 251.914062 257.214844 251.613281 257.386719 L 247.308594 259.894531 C 247.058594 260.042969 246.75 260.023438 246.515625 259.851562 C 245.726562 259.289062 244.90625 258.773438 244.054688 258.3125 C 243.800781 258.175781 243.648438 257.902344 243.671875 257.613281 L 244.050781 252.644531 C 244.074219 252.300781 243.859375 251.984375 243.53125 251.886719 L 239.367188 250.605469 C 239.035156 250.503906 238.683594 250.644531 238.511719 250.945312 L 236.039062 255.261719 C 235.894531 255.511719 235.617188 255.652344 235.328125 255.621094 C 234.375 255.527344 233.40625 255.496094 232.429688 255.523438 C 232.140625 255.53125 231.867188 255.375 231.742188 255.113281 L 229.585938 250.621094 C 229.441406 250.3125 229.097656 250.148438 228.761719 250.222656 L 224.515625 251.199219 C 224.175781 251.273438 223.941406 251.574219 223.941406 251.917969 L 223.960938 256.898438 C 223.960938 257.1875 223.789062 257.449219 223.523438 257.566406 C 222.632812 257.96875 221.773438 258.421875 220.957031 258.921875 C 220.707031 259.074219 220.398438 259.070312 220.160156 258.90625 L 216.054688 256.101562 C 215.769531 255.90625 215.386719 255.933594 215.136719 256.167969 L 211.945312 259.136719 C 211.695312 259.371094 211.636719 259.75 211.808594 260.046875 L 214.320312 264.355469 C 214.464844 264.605469 214.445312 264.914062 214.277344 265.148438 C 213.710938 265.933594 213.195312 266.753906 212.734375 267.605469 C 212.597656 267.859375 212.328125 268.011719 212.035156 267.992188 L 207.066406 267.613281 C 206.726562 267.585938 206.410156 267.800781 206.3125 268.132812 L 205.03125 272.296875 C 204.925781 272.625 205.066406 272.980469 205.367188 273.152344 L 209.683594 275.621094 C 209.933594 275.769531 210.074219 276.046875 210.046875 276.332031 C 209.949219 277.289062 209.917969 278.261719 209.945312 279.238281 C 209.953125 279.527344 209.796875 279.796875 209.53125 279.921875 L 205.042969 282.074219 C 204.734375 282.226562 204.570312 282.570312 204.644531 282.902344 L 205.621094 287.152344 C 205.699219 287.488281 205.996094 287.726562 206.339844 287.722656 L 211.320312 287.707031 C 211.609375 287.703125 211.871094 287.878906 211.988281 288.144531 C 212.390625 289.035156 212.84375 289.890625 213.34375 290.714844 C 213.496094 290.960938 213.492188 291.269531 213.332031 291.507812 L 210.519531 295.613281 C 210.328125 295.898438 210.355469 296.28125 210.589844 296.53125 L 213.558594 299.722656 C 213.792969 299.972656 214.167969 300.03125 214.464844 299.859375 L 218.769531 297.351562 C 219.023438 297.203125 219.332031 297.222656 219.570312 297.390625 C 220.355469 297.957031 221.175781 298.472656 222.027344 298.933594 C 222.28125 299.070312 222.433594 299.339844 222.414062 299.632812 L 222.03125 304.597656 C 222.007812 304.941406 222.222656 305.257812 222.550781 305.359375 L 226.714844 306.636719 C 227.046875 306.738281 227.398438 306.597656 227.570312 306.300781 L 230.042969 301.984375 C 230.183594 301.730469 230.460938 301.59375 230.75 301.621094 C 231.707031 301.714844 232.675781 301.746094 233.65625 301.722656 C 233.945312 301.714844 234.214844 301.871094 234.339844 302.132812 L 236.492188 306.625 C 236.640625 306.933594 236.988281 307.097656 237.320312 307.023438 L 241.570312 306.046875 C 241.90625 305.96875 242.140625 305.671875 242.140625 305.328125 L 242.121094 300.347656 C 242.121094 300.054688 242.292969 299.796875 242.558594 299.675781 C 243.449219 299.277344 244.308594 298.824219 245.125 298.324219 C 245.375 298.171875 245.683594 298.171875 245.925781 298.335938 L 250.027344 301.144531 C 250.3125 301.339844 250.691406 301.308594 250.945312 301.074219 L 254.136719 298.105469 C 254.390625 297.871094 254.445312 297.496094 254.269531 297.199219 L 251.765625 292.890625 C 251.617188 292.640625 251.640625 292.332031 251.808594 292.097656 C 252.371094 291.308594 252.886719 290.488281 253.347656 289.636719 C 253.484375 289.382812 253.757812 289.230469 254.046875 289.25 L 259.011719 289.628906 C 259.355469 289.65625 259.671875 289.441406 259.773438 289.113281 L 261.054688 284.945312 C 261.152344 284.617188 261.011719 284.261719 260.714844 284.089844 L 256.398438 281.621094 C 256.148438 281.476562 256.007812 281.199219 256.035156 280.910156 C 256.128906 279.953125 256.164062 278.984375 256.136719 278.007812 C 256.128906 277.714844 256.285156 277.449219 256.546875 277.324219 L 261.039062 275.167969 C 261.347656 275.019531 261.515625 274.675781 261.4375 274.339844 L 260.460938 270.089844 " fill-opacity="1" fillRule="nonzero"/><path fill="#016b0f" d="M 281.726562 268.105469 C 275.8125 269.292969 270.058594 265.464844 268.867188 259.554688 C 267.683594 253.644531 271.511719 247.894531 277.425781 246.707031 C 283.335938 245.519531 289.09375 249.347656 290.277344 255.257812 C 291.46875 261.164062 287.640625 266.917969 281.726562 268.105469 Z M 299.257812 248.742188 C 299.167969 248.5 298.929688 248.347656 298.671875 248.378906 L 294.96875 248.8125 C 294.75 248.839844 294.542969 248.730469 294.433594 248.542969 C 294.0625 247.914062 293.652344 247.3125 293.207031 246.746094 C 293.074219 246.574219 293.050781 246.34375 293.152344 246.152344 L 294.894531 242.859375 C 295.015625 242.632812 294.960938 242.351562 294.765625 242.183594 L 292.285156 240.058594 C 292.09375 239.890625 291.804688 239.882812 291.597656 240.035156 L 288.605469 242.265625 C 288.433594 242.394531 288.199219 242.410156 288.011719 242.300781 C 287.378906 241.949219 286.726562 241.636719 286.050781 241.363281 C 285.851562 241.28125 285.714844 241.09375 285.707031 240.875 L 285.566406 237.148438 C 285.558594 236.890625 285.371094 236.671875 285.121094 236.625 L 281.910156 236.027344 C 281.65625 235.980469 281.40625 236.113281 281.304688 236.351562 L 279.832031 239.769531 C 279.742188 239.96875 279.550781 240.097656 279.332031 240.097656 C 278.613281 240.109375 277.890625 240.167969 277.164062 240.269531 C 276.949219 240.300781 276.734375 240.207031 276.617188 240.023438 L 274.636719 236.863281 C 274.5 236.644531 274.230469 236.550781 273.988281 236.636719 L 270.910156 237.722656 C 270.667969 237.808594 270.515625 238.050781 270.546875 238.304688 L 270.980469 242.007812 C 271.003906 242.226562 270.898438 242.433594 270.710938 242.542969 C 270.082031 242.917969 269.484375 243.328125 268.914062 243.769531 C 268.746094 243.902344 268.515625 243.925781 268.320312 243.828125 L 265.03125 242.082031 C 264.800781 241.964844 264.519531 242.015625 264.351562 242.210938 L 262.230469 244.691406 C 262.0625 244.886719 262.050781 245.171875 262.207031 245.378906 L 264.4375 248.371094 C 264.566406 248.546875 264.578125 248.777344 264.472656 248.964844 C 264.121094 249.601562 263.804688 250.253906 263.53125 250.929688 C 263.453125 251.128906 263.265625 251.265625 263.046875 251.273438 L 259.320312 251.410156 C 259.0625 251.417969 258.847656 251.605469 258.796875 251.859375 L 258.195312 255.070312 C 258.152344 255.320312 258.285156 255.574219 258.519531 255.675781 L 261.941406 257.152344 C 262.140625 257.234375 262.269531 257.429688 262.269531 257.648438 C 262.285156 258.367188 262.339844 259.09375 262.441406 259.816406 C 262.472656 260.03125 262.378906 260.246094 262.195312 260.359375 L 259.035156 262.34375 C 258.816406 262.480469 258.722656 262.75 258.808594 262.992188 L 259.894531 266.070312 C 259.980469 266.316406 260.222656 266.464844 260.476562 266.4375 L 264.179688 266 C 264.394531 265.976562 264.605469 266.082031 264.71875 266.269531 C 265.089844 266.898438 265.5 267.5 265.941406 268.066406 C 266.078125 268.238281 266.101562 268.46875 266 268.660156 L 264.253906 271.953125 C 264.136719 272.179688 264.1875 272.460938 264.386719 272.628906 L 266.863281 274.753906 C 267.058594 274.921875 267.34375 274.929688 267.550781 274.777344 L 270.542969 272.546875 C 270.71875 272.417969 270.953125 272.40625 271.136719 272.511719 C 271.769531 272.863281 272.425781 273.175781 273.097656 273.449219 C 273.300781 273.53125 273.4375 273.71875 273.441406 273.9375 L 273.582031 277.664062 C 273.59375 277.921875 273.78125 278.136719 274.03125 278.1875 L 277.238281 278.789062 C 277.492188 278.835938 277.746094 278.699219 277.847656 278.464844 L 279.320312 275.042969 C 279.40625 274.84375 279.601562 274.714844 279.816406 274.714844 C 280.539062 274.703125 281.261719 274.644531 281.988281 274.542969 C 282.203125 274.511719 282.414062 274.605469 282.527344 274.789062 L 284.515625 277.949219 C 284.648438 278.167969 284.921875 278.261719 285.164062 278.175781 L 288.242188 277.089844 C 288.484375 277.003906 288.636719 276.761719 288.605469 276.507812 L 288.171875 272.804688 C 288.144531 272.585938 288.253906 272.378906 288.4375 272.265625 C 289.070312 271.894531 289.667969 271.484375 290.234375 271.042969 C 290.40625 270.90625 290.636719 270.882812 290.828125 270.984375 L 294.121094 272.726562 C 294.351562 272.847656 294.628906 272.796875 294.796875 272.597656 L 296.921875 270.121094 C 297.085938 269.925781 297.097656 269.640625 296.945312 269.433594 L 294.714844 266.441406 C 294.585938 266.269531 294.574219 266.035156 294.675781 265.84375 C 295.03125 265.214844 295.34375 264.558594 295.617188 263.886719 C 295.699219 263.683594 295.886719 263.550781 296.101562 263.539062 L 299.832031 263.402344 C 300.089844 263.394531 300.304688 263.207031 300.351562 262.953125 L 300.953125 259.746094 C 301 259.492188 300.867188 259.238281 300.628906 259.136719 L 297.207031 257.664062 C 297.007812 257.578125 296.882812 257.382812 296.878906 257.167969 C 296.867188 256.445312 296.808594 255.722656 296.707031 254.996094 C 296.675781 254.78125 296.773438 254.566406 296.953125 254.453125 L 300.117188 252.46875 C 300.332031 252.332031 300.425781 252.0625 300.339844 251.820312 L 299.257812 248.742188 " fill-opacity="1" fillRule="nonzero"/><path fill="#ffffff" d="M 130.484375 272.785156 C 124.332031 272.847656 119.292969 267.914062 119.230469 261.765625 C 119.164062 255.617188 124.101562 250.582031 130.253906 250.515625 C 136.40625 250.453125 141.445312 255.386719 141.507812 261.535156 C 141.574219 267.683594 136.636719 272.71875 130.484375 272.785156 Z M 151.75 256.714844 C 151.710938 256.453125 151.496094 256.253906 151.234375 256.238281 L 147.4375 255.96875 C 147.21875 255.953125 147.027344 255.804688 146.953125 255.597656 C 146.699219 254.894531 146.402344 254.214844 146.066406 253.5625 C 145.964844 253.367188 145.984375 253.128906 146.125 252.957031 L 148.5 249.988281 C 148.664062 249.78125 148.664062 249.488281 148.5 249.285156 L 146.417969 246.683594 C 146.253906 246.480469 145.96875 246.414062 145.734375 246.53125 L 142.3125 248.195312 C 142.113281 248.292969 141.875 248.257812 141.707031 248.117188 C 141.140625 247.644531 140.542969 247.203125 139.921875 246.804688 C 139.734375 246.683594 139.632812 246.46875 139.667969 246.25 L 140.238281 242.484375 C 140.28125 242.226562 140.132812 241.972656 139.890625 241.878906 L 136.789062 240.664062 C 136.542969 240.570312 136.265625 240.65625 136.117188 240.875 L 133.988281 244.019531 C 133.863281 244.203125 133.644531 244.296875 133.425781 244.257812 C 132.703125 244.128906 131.96875 244.050781 131.222656 244.015625 C 131 244.003906 130.804688 243.867188 130.722656 243.664062 L 129.335938 240.117188 C 129.242188 239.875 128.988281 239.726562 128.730469 239.765625 L 125.4375 240.269531 C 125.175781 240.308594 124.980469 240.523438 124.960938 240.785156 L 124.691406 244.582031 C 124.675781 244.804688 124.527344 244.988281 124.320312 245.066406 C 123.617188 245.320312 122.9375 245.617188 122.285156 245.953125 C 122.089844 246.054688 121.851562 246.035156 121.679688 245.894531 L 118.710938 243.519531 C 118.503906 243.359375 118.214844 243.359375 118.007812 243.519531 L 115.40625 245.601562 C 115.203125 245.765625 115.136719 246.050781 115.253906 246.285156 L 116.917969 249.710938 C 117.015625 249.910156 116.984375 250.144531 116.839844 250.316406 C 116.367188 250.882812 115.925781 251.476562 115.527344 252.101562 C 115.40625 252.285156 115.191406 252.386719 114.972656 252.355469 L 111.207031 251.78125 C 110.949219 251.742188 110.695312 251.886719 110.601562 252.132812 L 109.386719 255.234375 C 109.292969 255.480469 109.378906 255.757812 109.597656 255.90625 L 112.742188 258.035156 C 112.925781 258.15625 113.015625 258.378906 112.980469 258.59375 C 112.851562 259.320312 112.773438 260.058594 112.738281 260.800781 C 112.726562 261.023438 112.589844 261.21875 112.382812 261.300781 L 108.839844 262.6875 C 108.597656 262.78125 108.449219 263.035156 108.488281 263.296875 L 108.988281 266.589844 C 109.03125 266.847656 109.242188 267.046875 109.507812 267.066406 L 113.300781 267.332031 C 113.523438 267.351562 113.710938 267.496094 113.785156 267.703125 C 114.039062 268.40625 114.335938 269.085938 114.671875 269.742188 C 114.773438 269.9375 114.753906 270.171875 114.613281 270.34375 L 112.242188 273.316406 C 112.078125 273.519531 112.078125 273.808594 112.242188 274.015625 L 114.320312 276.617188 C 114.484375 276.824219 114.769531 276.886719 115.007812 276.773438 L 118.429688 275.105469 C 118.628906 275.011719 118.863281 275.042969 119.035156 275.183594 C 119.601562 275.660156 120.195312 276.097656 120.820312 276.5 C 121.003906 276.617188 121.105469 276.832031 121.074219 277.050781 L 120.5 280.816406 C 120.460938 281.078125 120.605469 281.328125 120.851562 281.425781 L 123.953125 282.636719 C 124.199219 282.730469 124.476562 282.644531 124.621094 282.425781 L 126.75 279.277344 C 126.875 279.09375 127.09375 279.007812 127.3125 279.046875 C 128.035156 279.171875 128.773438 279.25 129.519531 279.285156 C 129.742188 279.292969 129.9375 279.433594 130.015625 279.640625 L 131.402344 283.183594 C 131.5 283.429688 131.75 283.574219 132.011719 283.53125 L 135.304688 283.03125 C 135.5625 282.992188 135.761719 282.777344 135.777344 282.519531 L 136.050781 278.71875 C 136.066406 278.5 136.210938 278.3125 136.421875 278.238281 C 137.121094 277.980469 137.800781 277.683594 138.457031 277.351562 C 138.652344 277.25 138.886719 277.269531 139.0625 277.40625 L 142.027344 279.777344 C 142.234375 279.945312 142.527344 279.945312 142.730469 279.777344 L 145.332031 277.699219 C 145.539062 277.535156 145.601562 277.25 145.488281 277.015625 L 143.820312 273.589844 C 143.722656 273.390625 143.757812 273.15625 143.898438 272.988281 C 144.375 272.417969 144.8125 271.824219 145.214844 271.203125 C 145.332031 271.015625 145.546875 270.914062 145.769531 270.949219 L 149.53125 271.519531 C 149.789062 271.558594 150.042969 271.414062 150.140625 271.167969 L 151.351562 268.066406 C 151.449219 267.820312 151.363281 267.542969 151.144531 267.394531 L 147.996094 265.265625 C 147.8125 265.140625 147.722656 264.921875 147.761719 264.707031 C 147.886719 263.980469 147.96875 263.242188 148.003906 262.496094 C 148.011719 262.277344 148.148438 262.082031 148.355469 262 L 151.902344 260.613281 C 152.144531 260.519531 152.289062 260.265625 152.25 260.007812 L 151.75 256.714844 " fill-opacity="1" fillRule="nonzero"/><path fill="#016b0f" d="M 138.839844 144.558594 L 155.230469 136.515625 C 168.566406 129.972656 181.011719 121.753906 192.261719 112.054688 L 193.066406 107.074219 C 193.066406 107.074219 198.625 107.136719 199.8125 107.070312 C 201.332031 106.980469 202.875 107.511719 204.039062 108.652344 C 216.25 120.59375 230.148438 130.675781 245.296875 138.574219 L 256.015625 144.164062 C 258.503906 145.464844 259.421875 147.75 258.671875 151.042969 L 244.664062 210.171875 C 238.570312 226.714844 214.015625 248.847656 200.199219 260.371094 C 197.683594 262.46875 194.613281 263.492188 191.554688 263.472656 C 190.195312 263.464844 184.582031 263.640625 184.582031 263.640625 C 184.582031 263.640625 183.390625 261.277344 181.820312 259.679688 C 169.398438 247.070312 147.613281 222.792969 143.191406 203.675781 L 135.859375 150.824219 C 135.277344 148.296875 136.511719 145.699219 138.839844 144.558594 " fill-opacity="1" fillRule="nonzero"/><path fill="#ffffff" d="M 132.632812 144.871094 L 148.898438 136.894531 C 162.128906 130.402344 174.476562 122.246094 185.640625 112.625 L 189.832031 109.011719 C 192.011719 107.132812 195.269531 107.234375 197.324219 109.246094 C 209.4375 121.097656 223.234375 131.101562 238.261719 138.9375 L 248.894531 144.480469 C 251.367188 145.769531 252.496094 148.691406 251.53125 151.308594 L 237.636719 209.976562 C 231.585938 226.390625 206.964844 248.558594 193.253906 259.992188 C 187.941406 264.421875 180.128906 264.023438 175.277344 259.101562 C 162.957031 246.585938 141.335938 222.5 136.949219 203.53125 L 129.675781 151.089844 C 129.097656 148.582031 130.320312 146.007812 132.632812 144.871094 " fill-opacity="1" fillRule="nonzero"/><path fill="#c1ff72" d="M 142.625 151.839844 L 156.089844 145.234375 C 167.046875 139.863281 177.269531 133.109375 186.511719 125.140625 L 189.980469 122.148438 C 191.785156 120.59375 194.484375 120.675781 196.1875 122.34375 C 206.214844 132.152344 217.636719 140.4375 230.082031 146.925781 L 238.882812 151.519531 C 240.929688 152.582031 241.863281 155.003906 241.066406 157.167969 L 229.5625 205.746094 C 224.554688 219.332031 204.167969 237.691406 192.8125 247.15625 C 188.417969 250.820312 181.945312 250.496094 177.929688 246.414062 C 167.730469 236.058594 149.828125 216.113281 146.199219 200.40625 L 140.175781 156.988281 C 139.695312 154.910156 140.710938 152.78125 142.625 151.839844 " fill-opacity="1" fillRule="nonzero"/><path fill="#000000" d="M 184.769531 263.640625 C 181.152344 263.644531 177.539062 262.253906 174.847656 259.519531 C 162.371094 246.847656 140.773438 222.738281 136.367188 203.667969 C 136.363281 203.648438 136.359375 203.632812 136.359375 203.613281 L 134.476562 190.058594 C 134.429688 189.730469 134.660156 189.425781 134.988281 189.382812 C 135.316406 189.335938 135.621094 189.566406 135.664062 189.894531 L 137.539062 203.421875 C 141.898438 222.203125 163.320312 246.101562 175.707031 258.679688 C 180.300781 263.347656 187.839844 263.722656 192.867188 259.535156 C 206.800781 247.914062 231.066406 226.011719 237.058594 209.804688 L 250.949219 151.167969 C 250.953125 151.148438 250.957031 151.121094 250.96875 151.101562 C 251.824219 148.777344 250.8125 146.164062 248.617188 145.015625 L 237.984375 139.472656 C 222.894531 131.601562 209.070312 121.578125 196.90625 109.675781 C 195.054688 107.867188 192.179688 107.777344 190.222656 109.46875 L 186.03125 113.078125 C 174.839844 122.730469 162.433594 130.925781 149.160156 137.433594 L 132.898438 145.414062 C 130.824219 146.429688 129.742188 148.707031 130.261719 150.957031 C 130.265625 150.972656 130.269531 150.992188 130.269531 151.007812 L 133.390625 173.511719 C 133.4375 173.839844 133.207031 174.144531 132.878906 174.1875 C 132.554688 174.230469 132.25 174.003906 132.203125 173.679688 L 129.085938 151.199219 C 128.457031 148.414062 129.800781 145.59375 132.371094 144.335938 L 148.632812 136.359375 C 161.8125 129.890625 174.132812 121.757812 185.246094 112.171875 L 189.4375 108.558594 C 191.875 106.460938 195.445312 106.570312 197.742188 108.820312 C 209.828125 120.636719 223.554688 130.59375 238.539062 138.40625 L 249.171875 143.953125 C 251.890625 145.371094 253.148438 148.601562 252.109375 151.480469 L 238.21875 210.113281 C 238.210938 210.136719 238.207031 210.160156 238.199219 210.183594 C 232.125 226.660156 207.671875 248.75 193.632812 260.453125 C 191.074219 262.589844 187.917969 263.640625 184.769531 263.640625 " fill-opacity="1" fillRule="nonzero"/><path fill="#ffffff" d="M 200.007812 166.007812 L 199.761719 150.445312 C 199.644531 145.421875 195.65625 141.304688 190.632812 141.074219 C 185.089844 140.816406 180.496094 145.347656 180.621094 150.886719 L 180.734375 155.714844 C 180.769531 157.398438 179.378906 158.765625 177.695312 158.699219 C 176.148438 158.636719 174.917969 157.375 174.894531 155.824219 L 174.828125 151.242188 C 174.621094 142.339844 181.75 135.03125 190.941406 135.40625 L 190.941406 135.414062 C 198.535156 135.722656 205.484375 142.402344 205.675781 150.53125 L 205.871094 166.246094 L 200.007812 166.007812 " fill-opacity="1" fillRule="nonzero"/><path fill="#000000" d="M 200.601562 165.433594 L 205.265625 165.621094 L 205.074219 150.539062 C 204.898438 142.972656 198.414062 136.316406 190.917969 136.011719 C 190.886719 136.011719 190.851562 136.007812 190.824219 136.003906 C 186.644531 135.855469 182.757812 137.34375 179.855469 140.199219 C 176.902344 143.101562 175.328125 147.015625 175.429688 151.226562 L 175.492188 155.816406 C 175.511719 157.046875 176.488281 158.050781 177.71875 158.101562 C 178.371094 158.128906 178.976562 157.890625 179.441406 157.4375 C 179.902344 156.984375 180.148438 156.375 180.132812 155.730469 L 180.023438 150.902344 C 179.957031 148.082031 181.078125 145.335938 183.101562 143.363281 C 185.140625 141.371094 187.832031 140.347656 190.660156 140.472656 C 195.976562 140.71875 200.238281 145.09375 200.359375 150.433594 Z M 205.871094 166.84375 C 205.863281 166.84375 205.855469 166.84375 205.847656 166.84375 L 199.984375 166.605469 C 199.664062 166.59375 199.414062 166.335938 199.410156 166.015625 L 199.160156 150.457031 C 199.054688 145.75 195.296875 141.886719 190.605469 141.671875 C 188.109375 141.5625 185.738281 142.460938 183.9375 144.21875 C 182.15625 145.960938 181.164062 148.386719 181.222656 150.875 L 181.332031 155.703125 C 181.355469 156.683594 180.980469 157.601562 180.28125 158.292969 C 179.589844 158.96875 178.636719 159.339844 177.671875 159.296875 C 175.804688 159.222656 174.320312 157.699219 174.292969 155.832031 L 174.226562 151.25 C 174.121094 146.710938 175.820312 142.480469 179.011719 139.34375 C 182.179688 136.234375 186.429688 134.621094 190.96875 134.804688 C 191 134.808594 191.03125 134.8125 191.066406 134.820312 C 199.128906 135.203125 206.085938 142.367188 206.273438 150.519531 L 206.472656 166.238281 C 206.472656 166.402344 206.410156 166.5625 206.292969 166.675781 C 206.179688 166.785156 206.027344 166.84375 205.871094 166.84375 " fill-opacity="1" fillRule="nonzero"/><path fill="#016b0f" d="M 193.5 208.789062 L 186.933594 209.050781 C 177.839844 208.820312 169.796875 197.960938 170.664062 185.191406 L 172.042969 164.769531 L 210.695312 164.457031 C 214.125 164.445312 217 167.5 216.761719 170.921875 L 215.570312 188.171875 C 214.785156 199.777344 205.136719 208.789062 193.5 208.789062 " fill-opacity="1" fillRule="nonzero"/><path fill="#ffffff" d="M 187.167969 208.46875 C 174.363281 208.46875 164.234375 197.640625 165.097656 184.871094 L 166.4375 165.070312 L 207.304688 165.070312 C 209.183594 165.070312 210.671875 166.660156 210.542969 168.535156 L 209.238281 187.851562 C 208.453125 199.457031 198.804688 208.46875 187.167969 208.46875 " fill-opacity="1" fillRule="nonzero"/><path fill="#000000" d="M 187.167969 209.070312 C 175.960938 209.070312 166.292969 200.726562 164.683594 189.660156 C 164.636719 189.332031 164.863281 189.027344 165.191406 188.980469 C 165.519531 188.933594 165.824219 189.160156 165.871094 189.488281 C 167.398438 199.96875 176.554688 207.871094 187.167969 207.871094 C 198.445312 207.871094 207.878906 199.058594 208.640625 187.8125 L 209.953125 168.394531 C 210 167.679688 209.757812 167 209.269531 166.480469 C 208.78125 165.957031 208.121094 165.671875 207.40625 165.671875 L 169.636719 165.671875 C 168.15625 165.671875 166.917969 166.828125 166.820312 168.304688 L 166.636719 171.007812 C 166.613281 171.339844 166.324219 171.59375 165.996094 171.566406 C 165.667969 171.542969 165.417969 171.257812 165.4375 170.925781 L 165.621094 168.222656 C 165.765625 166.117188 167.527344 164.472656 169.636719 164.472656 L 207.40625 164.472656 C 208.441406 164.472656 209.441406 164.90625 210.148438 165.660156 C 210.855469 166.417969 211.21875 167.441406 211.148438 168.476562 L 209.835938 187.894531 C 209.035156 199.769531 199.078125 209.070312 187.167969 209.070312 " fill-opacity="1" fillRule="nonzero"/><path fill="#000000" d="M 186.660156 195.945312 C 185.617188 195.945312 184.789062 195.0625 184.855469 194.023438 L 185.835938 178.632812 C 185.898438 177.679688 186.6875 176.941406 187.640625 176.941406 C 188.683594 176.941406 189.511719 177.820312 189.445312 178.863281 L 188.464844 194.253906 C 188.402344 195.203125 187.613281 195.945312 186.660156 195.945312 " fill-opacity="1" fillRule="nonzero"/><path fill="#000000" d="M 193.945312 180.03125 C 193.945312 183.703125 190.96875 186.679688 187.292969 186.679688 C 183.617188 186.679688 180.640625 183.703125 180.640625 180.03125 C 180.640625 176.359375 183.617188 173.382812 187.292969 173.382812 C 190.96875 173.382812 193.945312 176.359375 193.945312 180.03125 " fill-opacity="1" fillRule="nonzero"/><path fill="#7ed957" d="M 159.03125 202.617188 C 155.558594 202.617188 152.210938 200.664062 149.597656 197.125 C 149.398438 196.855469 149.457031 196.480469 149.722656 196.285156 C 149.988281 196.089844 150.367188 196.144531 150.5625 196.410156 C 152.945312 199.640625 155.953125 201.417969 159.03125 201.417969 C 166.359375 201.417969 172.320312 191.675781 172.320312 179.699219 C 172.320312 167.726562 166.359375 157.984375 159.03125 157.984375 C 155.894531 157.984375 152.84375 159.820312 150.4375 163.160156 C 150.246094 163.425781 149.871094 163.488281 149.601562 163.292969 C 149.332031 163.101562 149.273438 162.726562 149.464844 162.457031 C 152.101562 158.800781 155.496094 156.785156 159.03125 156.785156 C 167.019531 156.785156 173.523438 167.066406 173.523438 179.699219 C 173.523438 192.335938 167.019531 202.617188 159.03125 202.617188 " fill-opacity="1" fillRule="nonzero"/><path fill="#7ed957" d="M 174.960938 187.792969 C 174.628906 187.792969 174.363281 187.523438 174.363281 187.191406 C 174.363281 186.859375 174.628906 186.59375 174.960938 186.59375 C 177.164062 186.59375 179.023438 183.4375 179.023438 179.699219 C 179.023438 175.964844 177.164062 172.808594 174.960938 172.808594 C 174.628906 172.808594 174.363281 172.542969 174.363281 172.210938 C 174.363281 171.878906 174.628906 171.609375 174.960938 171.609375 C 177.914062 171.609375 180.226562 175.164062 180.226562 179.699219 C 180.226562 184.238281 177.914062 187.792969 174.960938 187.792969 " fill-opacity="1" fillRule="nonzero"/><path fill="#7ed957" d="M 146.519531 184.1875 C 143.898438 184.1875 141.773438 182.0625 141.773438 179.441406 C 141.773438 176.824219 143.898438 174.699219 146.519531 174.699219 C 149.144531 174.699219 151.269531 176.824219 151.269531 179.441406 C 151.269531 182.0625 149.144531 184.1875 146.519531 184.1875 Z M 186.457031 176.898438 L 165.238281 176.898438 C 163.871094 169.300781 158.078125 165.253906 151.140625 165.253906 C 143.1875 165.253906 136.734375 171.597656 136.734375 179.546875 C 136.734375 187.496094 143.1875 193.929688 151.140625 193.929688 C 157.933594 193.929688 163.625 189.292969 165.144531 182.894531 L 186.457031 182.894531 C 188.207031 182.894531 189.625 181.644531 189.625 179.894531 C 189.625 178.148438 188.207031 176.898438 186.457031 176.898438 " fill-opacity="1" fillRule="nonzero"/><path fill="#000000" d="M 146.519531 175.296875 C 144.234375 175.296875 142.375 177.15625 142.375 179.441406 C 142.375 181.730469 144.234375 183.589844 146.519531 183.589844 C 148.808594 183.589844 150.671875 181.730469 150.671875 179.441406 C 150.671875 177.15625 148.808594 175.296875 146.519531 175.296875 Z M 146.519531 184.789062 C 143.570312 184.789062 141.171875 182.390625 141.171875 179.441406 C 141.171875 176.496094 143.570312 174.097656 146.519531 174.097656 C 149.46875 174.097656 151.871094 176.496094 151.871094 179.441406 C 151.871094 182.390625 149.46875 184.789062 146.519531 184.789062 Z M 151.140625 165.855469 C 143.527344 165.855469 137.335938 171.996094 137.335938 179.546875 C 137.335938 187.148438 143.527344 193.332031 151.140625 193.332031 C 157.5625 193.332031 163.082031 188.980469 164.558594 182.753906 C 164.621094 182.484375 164.863281 182.292969 165.144531 182.292969 L 186.457031 182.292969 C 187.921875 182.292969 189.027344 181.261719 189.027344 179.894531 C 189.027344 178.527344 187.921875 177.496094 186.457031 177.496094 L 165.238281 177.496094 C 164.949219 177.496094 164.699219 177.289062 164.644531 177.003906 C 163.410156 170.125 158.234375 165.855469 151.140625 165.855469 Z M 151.140625 194.53125 C 142.867188 194.53125 136.136719 187.808594 136.136719 179.546875 C 136.136719 171.335938 142.867188 164.65625 151.140625 164.65625 C 158.683594 164.65625 164.230469 169.101562 165.734375 176.296875 L 186.457031 176.296875 C 188.570312 176.296875 190.226562 177.878906 190.226562 179.894531 C 190.226562 181.914062 188.570312 183.492188 186.457031 183.492188 L 165.609375 183.492188 C 163.84375 190.015625 157.960938 194.53125 151.140625 194.53125 " fill-opacity="1" fillRule="nonzero"/><path fill="#ffffff" d="M 67.128906 327.296875 L 65.898438 340.351562 C 65.855469 340.71875 66.101562 341.054688 66.429688 341.074219 L 72.914062 341.476562 C 73.195312 341.496094 73.433594 341.269531 73.472656 340.953125 L 74.679688 329.089844 L 67.128906 327.296875 " fill-opacity="1" fillRule="nonzero"/><path fill="#000000" d="M 66.511719 340.492188 L 66.515625 340.492188 Z M 66.503906 340.480469 L 72.875 340.871094 L 74.027344 329.550781 L 67.660156 328.039062 L 66.496094 340.40625 C 66.492188 340.441406 66.5 340.464844 66.503906 340.480469 Z M 72.945312 342.078125 C 72.921875 342.078125 72.902344 342.078125 72.878906 342.074219 L 66.390625 341.675781 C 66.082031 341.65625 65.800781 341.507812 65.589844 341.261719 C 65.367188 340.996094 65.261719 340.636719 65.300781 340.285156 L 66.53125 327.242188 C 66.546875 327.066406 66.636719 326.910156 66.777344 326.808594 C 66.921875 326.707031 67.097656 326.671875 67.269531 326.714844 L 74.820312 328.503906 C 75.109375 328.574219 75.308594 328.851562 75.277344 329.148438 L 74.070312 341.015625 C 73.992188 341.636719 73.515625 342.078125 72.945312 342.078125 " fill-opacity="1" fillRule="nonzero"/><path fill="#016b0f" d="M 64.875 336.972656 C 64.445312 338.511719 63.535156 342.859375 63.15625 345.472656 C 62.917969 347.113281 63.957031 348.664062 65.542969 349.09375 C 70.03125 350.308594 80.757812 350.257812 89.691406 350.648438 C 90.300781 350.675781 91.429688 350.378906 91.929688 348.898438 C 93.628906 343.875 84.242188 342.316406 74.964844 337.210938 C 74.78125 337.109375 74.558594 337.121094 74.390625 337.242188 C 74.285156 337.316406 74.148438 337.410156 73.988281 337.511719 C 72.375 338.539062 69.691406 338.539062 68.050781 337.554688 L 66.199219 336.441406 C 65.691406 336.136719 65.035156 336.398438 64.875 336.972656 " fill-opacity="1" fillRule="nonzero"/><path fill="#000000" d="M 64.875 336.972656 L 64.878906 336.972656 Z M 65.742188 336.914062 C 65.695312 336.914062 65.65625 336.921875 65.628906 336.933594 C 65.578125 336.953125 65.488281 337.007812 65.453125 337.132812 C 65.019531 338.691406 64.113281 343.058594 63.75 345.5625 C 63.558594 346.894531 64.394531 348.164062 65.699219 348.515625 C 68.96875 349.398438 75.910156 349.605469 82.621094 349.808594 C 84.984375 349.875 87.421875 349.949219 89.71875 350.050781 C 89.914062 350.0625 90.914062 350.035156 91.363281 348.707031 C 92.324219 345.867188 88.941406 344.246094 82.886719 341.625 C 80.375 340.539062 77.535156 339.308594 74.703125 337.75 C 74.597656 337.828125 74.464844 337.921875 74.308594 338.019531 C 72.527344 339.152344 69.582031 339.171875 67.742188 338.066406 L 65.890625 336.957031 C 65.835938 336.921875 65.785156 336.914062 65.742188 336.914062 Z M 89.765625 351.253906 C 89.734375 351.253906 89.699219 351.25 89.664062 351.25 C 87.378906 351.148438 84.941406 351.078125 82.585938 351.003906 C 75.492188 350.792969 68.792969 350.59375 65.386719 349.671875 C 63.496094 349.160156 62.28125 347.320312 62.5625 345.386719 C 62.941406 342.777344 63.847656 338.417969 64.296875 336.8125 C 64.425781 336.355469 64.75 335.992188 65.1875 335.820312 C 65.625 335.644531 66.105469 335.6875 66.507812 335.929688 L 68.359375 337.042969 C 69.824219 337.917969 72.253906 337.902344 73.664062 337.003906 C 73.816406 336.910156 73.941406 336.824219 74.042969 336.753906 C 74.402344 336.496094 74.863281 336.46875 75.253906 336.6875 C 78.042969 338.222656 80.867188 339.441406 83.363281 340.523438 C 89.226562 343.0625 93.859375 345.066406 92.5 349.089844 C 91.957031 350.691406 90.714844 351.253906 89.765625 351.253906 " fill-opacity="1" fillRule="nonzero"/><path fill="#ffffff" d="M 62.886719 346.65625 C 62.878906 346.703125 62.871094 346.734375 62.871094 346.75 C 62.632812 348.390625 64.191406 349.398438 65.679688 350.097656 C 70.101562 352.171875 87.957031 350.980469 88.648438 350.933594 C 88.660156 350.933594 88.671875 350.933594 88.6875 350.933594 C 88.90625 350.9375 91.175781 350.9375 91.828125 349.527344 C 91.910156 349.355469 91.957031 349.109375 91.988281 348.878906 C 92.039062 348.5 92.011719 348.117188 91.929688 347.746094 C 91.863281 347.445312 91.566406 347.253906 91.265625 347.332031 C 87.953125 348.179688 80.214844 348.460938 72.480469 347.609375 C 67.339844 347.042969 65.105469 345.921875 63.914062 345.210938 C 63.589844 345.015625 63.171875 345.207031 63.097656 345.578125 C 63.039062 345.890625 62.960938 346.269531 62.886719 346.65625 " fill-opacity="1" fillRule="nonzero"/><path fill="#000000" d="M 62.886719 346.65625 L 62.890625 346.65625 Z M 63.671875 345.765625 L 63.476562 346.773438 L 63.460938 346.839844 C 63.316406 347.84375 64.078125 348.683594 65.933594 349.554688 C 69.355469 351.160156 82.261719 350.769531 88.605469 350.335938 C 88.621094 350.335938 88.671875 350.332031 88.6875 350.332031 C 89.414062 350.347656 90.882812 350.140625 91.285156 349.277344 C 91.304688 349.234375 91.355469 349.097656 91.394531 348.796875 C 91.429688 348.523438 91.417969 348.230469 91.355469 347.929688 C 88.160156 348.726562 80.472656 349.089844 72.414062 348.207031 C 67.382812 347.648438 65.015625 346.558594 63.671875 345.765625 Z M 77.421875 351.925781 C 72.585938 351.925781 67.574219 351.648438 65.425781 350.640625 C 64.472656 350.191406 61.9375 349.003906 62.277344 346.664062 C 62.277344 346.644531 62.285156 346.601562 62.296875 346.539062 L 62.511719 345.460938 C 62.582031 345.09375 62.832031 344.78125 63.171875 344.632812 C 63.511719 344.480469 63.902344 344.507812 64.222656 344.695312 C 65.457031 345.433594 67.660156 346.472656 72.546875 347.011719 C 80.511719 347.890625 88.0625 347.53125 91.117188 346.75 C 91.417969 346.671875 91.730469 346.722656 91.992188 346.882812 C 92.257812 347.046875 92.449219 347.3125 92.515625 347.617188 C 92.617188 348.074219 92.640625 348.523438 92.585938 348.957031 C 92.539062 349.300781 92.46875 349.570312 92.371094 349.78125 C 91.578125 351.492188 89.15625 351.546875 88.675781 351.535156 C 87.691406 351.601562 82.65625 351.925781 77.421875 351.925781 " fill-opacity="1" fillRule="nonzero"/><path fill="#000000" d="M 75.601562 341.871094 C 75.417969 341.871094 75.242188 341.789062 75.121094 341.632812 C 74.921875 341.371094 74.972656 340.992188 75.238281 340.792969 L 77.945312 338.730469 C 78.210938 338.527344 78.585938 338.582031 78.785156 338.84375 C 78.988281 339.109375 78.9375 339.484375 78.671875 339.6875 L 75.964844 341.746094 C 75.855469 341.832031 75.726562 341.871094 75.601562 341.871094 " fill-opacity="1" fillRule="nonzero"/><path fill="#000000" d="M 79.199219 343.34375 C 79.015625 343.34375 78.835938 343.261719 78.71875 343.105469 C 78.519531 342.839844 78.574219 342.464844 78.839844 342.265625 L 81.207031 340.488281 C 81.472656 340.289062 81.851562 340.34375 82.050781 340.605469 C 82.246094 340.871094 82.195312 341.25 81.929688 341.445312 L 79.558594 343.222656 C 79.449219 343.304688 79.324219 343.34375 79.199219 343.34375 " fill-opacity="1" fillRule="nonzero"/><path fill="#016b0f" d="M 47.851562 206.554688 C 47.851562 206.554688 42.703125 216.847656 40.972656 227.695312 C 39.359375 237.789062 33.433594 279.363281 18.988281 312.707031 C 17.351562 316.488281 19.242188 320.421875 23.269531 321.296875 C 24.878906 321.648438 25.554688 321.074219 26.949219 320.394531 C 27.667969 320.046875 28.859375 319.015625 28.859375 319.015625 C 28.859375 319.015625 54.429688 297.65625 64.859375 241.617188 C 71.5625 205.570312 70.449219 208.429688 70.449219 208.429688 L 47.851562 206.554688 " fill-opacity="1" fillRule="nonzero"/><path fill="#016b0f" d="M 55.027344 211.265625 C 55.027344 211.265625 52.027344 230.828125 57.703125 245.300781 C 63.164062 259.214844 66.648438 313.773438 64.613281 329.535156 C 64.488281 330.527344 65.175781 331.433594 66.164062 331.574219 C 68.648438 331.921875 73.125 332.394531 76.1875 331.824219 C 76.753906 331.714844 77.207031 331.304688 77.347656 330.746094 C 79.367188 322.75 96.136719 250.460938 84.3125 213.417969 L 55.027344 211.265625 " fill-opacity="1" fillRule="nonzero"/><path fill="#7ed957" d="M 60.769531 262.238281 C 60.453125 262.238281 60.1875 261.992188 60.167969 261.671875 C 60.164062 261.601562 59.71875 254.695312 56.425781 247.003906 C 55.394531 244.59375 54.652344 241.726562 54.214844 238.480469 C 54.171875 238.152344 54.402344 237.851562 54.730469 237.804688 C 55.058594 237.761719 55.363281 237.992188 55.40625 238.320312 C 55.828125 241.457031 56.542969 244.222656 57.53125 246.535156 C 60.90625 254.425781 61.351562 261.3125 61.367188 261.601562 C 61.386719 261.933594 61.136719 262.214844 60.804688 262.238281 C 60.792969 262.238281 60.78125 262.238281 60.769531 262.238281 " fill-opacity="1" fillRule="nonzero"/><path fill="#7ed957" d="M 61.171875 222.75 C 61.003906 222.75 60.84375 222.8125 60.71875 222.929688 C 60.570312 223.0625 60.492188 223.257812 60.503906 223.457031 L 61.097656 234.519531 C 61.160156 235.660156 61.726562 236.699219 62.652344 237.371094 L 66.128906 239.882812 C 67.359375 240.773438 68.984375 240.941406 70.367188 240.320312 L 75.738281 237.917969 C 77.140625 237.289062 78.015625 235.890625 77.96875 234.355469 L 77.628906 223.792969 C 77.625 223.605469 77.542969 223.4375 77.402344 223.3125 C 77.257812 223.1875 77.078125 223.136719 76.890625 223.152344 C 70.402344 223.839844 64.316406 223.199219 61.269531 222.757812 C 61.234375 222.753906 61.203125 222.75 61.171875 222.75 Z M 68.632812 241.890625 C 67.496094 241.890625 66.371094 241.539062 65.425781 240.855469 L 61.949219 238.34375 C 60.726562 237.457031 59.980469 236.085938 59.898438 234.582031 L 59.304688 223.519531 C 59.273438 222.957031 59.496094 222.421875 59.910156 222.042969 C 60.324219 221.664062 60.882812 221.492188 61.441406 221.574219 C 64.433594 222.003906 70.40625 222.632812 76.761719 221.957031 C 77.28125 221.902344 77.800781 222.066406 78.191406 222.40625 C 78.582031 222.746094 78.8125 223.238281 78.828125 223.753906 L 79.167969 234.320312 C 79.230469 236.339844 78.078125 238.183594 76.230469 239.011719 L 70.859375 241.414062 C 70.148438 241.734375 69.386719 241.890625 68.632812 241.890625 " fill-opacity="1" fillRule="nonzero"/><path fill="#7ed957" d="M 42.699219 239.390625 C 42.3125 239.390625 41.929688 239.273438 41.601562 239.042969 L 40.214844 238.105469 C 39.9375 237.917969 39.867188 237.546875 40.050781 237.269531 C 40.238281 236.996094 40.609375 236.925781 40.886719 237.113281 L 42.285156 238.054688 C 42.507812 238.214844 42.785156 238.234375 43.019531 238.117188 L 48.933594 235.113281 C 49.144531 235.003906 49.289062 234.796875 49.3125 234.5625 L 50.648438 222.257812 C 50.6875 221.882812 50.429688 221.542969 50.058594 221.488281 L 44.464844 220.605469 C 44.140625 220.554688 43.914062 220.246094 43.96875 219.921875 C 44.019531 219.59375 44.324219 219.371094 44.652344 219.421875 L 50.242188 220.304688 C 51.246094 220.460938 51.949219 221.371094 51.839844 222.386719 L 50.507812 234.691406 C 50.4375 235.332031 50.050781 235.890625 49.476562 236.179688 L 43.5625 239.183594 C 43.289062 239.324219 42.992188 239.390625 42.699219 239.390625 " fill-opacity="1" fillRule="nonzero"/><path fill="#ffffff" d="M 23.238281 327.628906 C 24.027344 323.6875 24.371094 322.878906 26.261719 319.839844 C 27.667969 317.582031 24.25 314.179688 22.511719 313.917969 C 19.609375 313.320312 20.070312 314.238281 16.75 318.492188 L 14.152344 321.6875 C 14.152344 321.6875 22.550781 331.070312 23.238281 327.628906 " fill-opacity="1" fillRule="nonzero"/><path fill="#000000" d="M 22.46875 328.980469 C 20.066406 328.980469 15.199219 323.761719 13.703125 322.089844 C 13.507812 321.867188 13.5 321.535156 13.6875 321.308594 L 16.15625 318.296875 C 17.054688 317.144531 17.625 316.226562 18.132812 315.378906 C 18.304688 315.097656 18.671875 315.003906 18.957031 315.175781 C 19.242188 315.34375 19.332031 315.714844 19.160156 315.996094 C 18.636719 316.875 18.042969 317.832031 17.09375 319.050781 L 14.945312 321.667969 C 17.882812 324.886719 21.5 328.046875 22.511719 327.777344 C 22.585938 327.757812 22.628906 327.621094 22.652344 327.511719 C 23.363281 323.945312 23.613281 322.910156 25.101562 320.425781 C 25.269531 320.144531 25.640625 320.050781 25.925781 320.222656 C 26.207031 320.390625 26.300781 320.761719 26.128906 321.042969 C 24.738281 323.363281 24.523438 324.273438 23.828125 327.742188 C 23.660156 328.589844 23.128906 328.855469 22.828125 328.933594 C 22.714844 328.964844 22.59375 328.980469 22.46875 328.980469 " fill-opacity="1" fillRule="nonzero"/><path fill="#016b0f" d="M 23.699219 326.148438 L 20.335938 321.082031 C 18.769531 318.714844 15.433594 318.363281 13.40625 320.347656 L 9.558594 323.574219 C 9.558594 323.574219 8.824219 325.792969 9.054688 327.222656 C 9.359375 329.089844 9.960938 331.746094 11.121094 334.378906 C 12.90625 338.429688 17.847656 346.570312 19.609375 349.429688 C 19.976562 350.027344 20.898438 350.621094 21.542969 350.335938 C 22.304688 349.992188 23.09375 349.378906 23.859375 348.664062 C 25.039062 347.554688 24.644531 342.375 24.222656 338.769531 C 23.949219 336.457031 24.152344 330.558594 24.25 328.125 C 24.28125 327.425781 24.085938 326.734375 23.699219 326.148438 " fill-opacity="1" fillRule="nonzero"/><path fill="#000000" d="M 10.078125 323.921875 C 9.867188 324.613281 9.488281 326.160156 9.648438 327.128906 C 9.9375 328.886719 10.519531 331.527344 11.671875 334.136719 C 13.464844 338.207031 18.589844 346.628906 20.121094 349.117188 C 20.382812 349.542969 21.023438 349.90625 21.296875 349.789062 C 21.921875 349.507812 22.625 348.996094 23.449219 348.226562 C 23.71875 347.972656 24.53125 346.546875 23.625 338.839844 C 23.347656 336.484375 23.550781 330.546875 23.652344 328.101562 C 23.675781 327.523438 23.519531 326.964844 23.199219 326.480469 L 19.835938 321.414062 C 19.1875 320.433594 18.148438 319.804688 16.980469 319.679688 C 15.8125 319.554688 14.664062 319.957031 13.824219 320.777344 L 13.792969 320.808594 Z M 21.167969 351.011719 C 20.320312 351.011719 19.476562 350.359375 19.097656 349.742188 C 17.125 346.539062 12.347656 338.648438 10.570312 334.621094 C 9.371094 331.894531 8.761719 329.148438 8.464844 327.320312 C 8.210938 325.761719 8.957031 323.484375 8.988281 323.386719 L 9.042969 323.226562 L 13.003906 319.902344 C 14.097656 318.84375 15.589844 318.328125 17.105469 318.488281 C 18.628906 318.648438 19.988281 319.472656 20.835938 320.75 L 24.199219 325.816406 C 24.660156 326.511719 24.882812 327.320312 24.851562 328.152344 C 24.75 330.566406 24.550781 336.429688 24.816406 338.699219 C 25.753906 346.683594 24.953125 348.457031 24.269531 349.101562 C 23.347656 349.964844 22.535156 350.546875 21.789062 350.882812 C 21.585938 350.972656 21.375 351.011719 21.167969 351.011719 " fill-opacity="1" fillRule="nonzero"/><path fill="#000000" d="M 24.101562 332.527344 C 24.046875 332.527344 23.992188 332.523438 23.941406 332.503906 L 20.324219 331.511719 C 20.003906 331.425781 19.816406 331.097656 19.902344 330.773438 C 19.992188 330.457031 20.320312 330.269531 20.640625 330.355469 L 24.257812 331.347656 C 24.578125 331.4375 24.765625 331.769531 24.679688 332.085938 C 24.605469 332.355469 24.363281 332.527344 24.101562 332.527344 " fill-opacity="1" fillRule="nonzero"/><path fill="#000000" d="M 23.832031 335.753906 C 23.777344 335.753906 23.726562 335.75 23.671875 335.734375 L 20.054688 334.742188 C 19.734375 334.652344 19.546875 334.324219 19.632812 334.003906 C 19.722656 333.683594 20.054688 333.496094 20.371094 333.585938 L 23.988281 334.578125 C 24.308594 334.664062 24.496094 334.996094 24.410156 335.3125 C 24.335938 335.582031 24.09375 335.753906 23.832031 335.753906 " fill-opacity="1" fillRule="nonzero"/><path fill="#ffffff" d="M 20.140625 350.597656 C 20.507812 350.597656 20.859375 350.542969 21.179688 350.429688 C 22.257812 350.058594 24.960938 349.253906 24.660156 345.382812 C 24.347656 341.371094 21.292969 339.324219 19.0625 336.691406 C 17.363281 334.683594 17.53125 326.28125 16.996094 324.632812 C 16.039062 321.683594 11.726562 321.238281 9.558594 323.574219 C 8.1875 325.050781 8.027344 328.253906 8.160156 330.613281 C 8.410156 335.027344 11.007812 343.8125 14.285156 348.054688 C 15.886719 350.121094 18.355469 350.597656 20.140625 350.597656 " fill-opacity="1" fillRule="nonzero"/><path fill="#000000" d="M 13.09375 322.679688 C 11.921875 322.679688 10.773438 323.148438 10 323.984375 C 9.03125 325.023438 8.582031 327.425781 8.757812 330.578125 C 8.992188 334.691406 11.445312 343.398438 14.761719 347.6875 C 16.316406 349.699219 18.800781 350 20.140625 350 C 20.4375 350 20.722656 349.953125 20.984375 349.863281 L 21.082031 349.832031 C 22.210938 349.445312 24.316406 348.726562 24.0625 345.429688 C 23.835938 342.558594 22.101562 340.769531 20.265625 338.871094 C 19.707031 338.296875 19.132812 337.703125 18.605469 337.078125 C 17.355469 335.605469 17.046875 331.492188 16.800781 328.183594 C 16.691406 326.707031 16.585938 325.308594 16.425781 324.816406 C 16.089844 323.785156 15.214844 323.042969 14.023438 322.777344 C 13.71875 322.710938 13.40625 322.679688 13.09375 322.679688 Z M 20.140625 351.199219 C 18.578125 351.199219 15.683594 350.839844 13.8125 348.421875 C 10.355469 343.953125 7.800781 334.910156 7.5625 330.644531 C 7.445312 328.605469 7.496094 324.917969 9.117188 323.167969 C 10.378906 321.808594 12.40625 321.199219 14.28125 321.609375 C 15.898438 321.964844 17.097656 323 17.566406 324.449219 C 17.773438 325.078125 17.871094 326.410156 17.996094 328.097656 C 18.207031 330.894531 18.523438 335.128906 19.519531 336.304688 C 20.023438 336.898438 20.585938 337.476562 21.125 338.035156 C 23.03125 340.003906 25 342.035156 25.257812 345.335938 C 25.585938 349.5625 22.59375 350.582031 21.46875 350.964844 L 21.375 351 C 20.984375 351.132812 20.570312 351.199219 20.140625 351.199219 " fill-opacity="1" fillRule="nonzero"/><path fill="#000000" d="M 20.140625 351.199219 C 19.691406 351.199219 19.25 351.171875 18.820312 351.117188 C 18.492188 351.074219 18.257812 350.773438 18.300781 350.445312 C 18.34375 350.117188 18.644531 349.878906 18.972656 349.925781 C 19.351562 349.976562 19.742188 350 20.140625 350 C 20.832031 350 21.449219 349.746094 21.832031 349.308594 C 22.152344 348.941406 22.285156 348.472656 22.210938 347.953125 C 21.683594 344.128906 19.632812 342.167969 17.261719 339.894531 C 15.128906 337.847656 14.636719 331.535156 14.375 328.144531 C 14.316406 327.375 14.253906 326.578125 14.203125 326.398438 C 14 325.65625 12.847656 324.722656 11.519531 324.574219 C 10.75 324.488281 9.691406 324.652344 9.027344 325.910156 C 8.871094 326.203125 8.507812 326.316406 8.214844 326.160156 C 7.921875 326.007812 7.8125 325.644531 7.964844 325.351562 C 8.71875 323.925781 10.0625 323.210938 11.648438 323.382812 C 13.367188 323.570312 15 324.757812 15.359375 326.082031 C 15.4375 326.359375 15.480469 326.917969 15.570312 328.050781 C 15.804688 331.054688 16.292969 337.300781 18.09375 339.027344 C 20.519531 341.355469 22.816406 343.554688 23.402344 347.785156 C 23.519531 348.648438 23.285156 349.46875 22.738281 350.097656 C 22.128906 350.796875 21.179688 351.199219 20.140625 351.199219 " fill-opacity="1" fillRule="nonzero"/><path fill="#ffffff" d="M 27.726562 215.847656 C 27.726562 215.847656 23.066406 214.632812 21.863281 215.679688 C 21.550781 215.949219 22.5625 222.015625 22.226562 222.320312 C 20.640625 223.773438 18.160156 225.652344 17.632812 227.015625 C 16.816406 229.121094 17.792969 235.226562 18.289062 237.964844 C 18.546875 239.375 20.515625 239.613281 21.054688 238.285156 C 21.203125 237.917969 21.28125 237.441406 21.238281 236.808594 C 21.085938 234.59375 21.296875 232.996094 21.445312 232.207031 C 21.511719 231.851562 21.707031 231.546875 21.992188 231.332031 C 23.328125 230.339844 27.445312 227.128906 28.050781 224.734375 C 28.128906 224.429688 27.945312 223.691406 27.769531 223.113281 C 27.597656 222.546875 27.523438 221.960938 27.542969 221.371094 L 27.726562 215.847656 " fill-opacity="1" fillRule="nonzero"/><path fill="#000000" d="M 22.402344 216.039062 C 22.390625 216.53125 22.535156 217.84375 22.640625 218.832031 C 22.984375 222.003906 22.984375 222.441406 22.632812 222.761719 C 22.265625 223.101562 21.847656 223.460938 21.421875 223.832031 C 20.140625 224.941406 18.542969 226.320312 18.191406 227.230469 C 17.660156 228.605469 17.917969 232.578125 18.878906 237.855469 C 18.964844 238.324219 19.335938 238.527344 19.652344 238.558594 C 19.796875 238.574219 20.289062 238.582031 20.5 238.058594 C 20.625 237.75 20.671875 237.34375 20.636719 236.847656 C 20.484375 234.546875 20.707031 232.882812 20.855469 232.09375 C 20.949219 231.597656 21.226562 231.152344 21.632812 230.851562 C 24.164062 228.976562 27.027344 226.34375 27.46875 224.589844 C 27.46875 224.585938 27.503906 224.316406 27.195312 223.289062 C 27.003906 222.652344 26.917969 222.003906 26.941406 221.347656 L 27.113281 216.3125 C 25.253906 215.878906 23.136719 215.679688 22.402344 216.039062 Z M 19.753906 239.761719 C 19.679688 239.761719 19.605469 239.757812 19.527344 239.75 C 18.601562 239.65625 17.867188 238.980469 17.699219 238.070312 C 17.101562 234.796875 16.226562 228.980469 17.074219 226.796875 C 17.53125 225.609375 19.109375 224.242188 20.632812 222.925781 C 21.007812 222.601562 21.367188 222.289062 21.695312 221.992188 C 21.722656 221.507812 21.558594 219.992188 21.449219 218.960938 C 21.117188 215.910156 21.121094 215.527344 21.472656 215.226562 C 22.84375 214.035156 27.050781 215.050781 27.878906 215.265625 C 28.152344 215.335938 28.335938 215.585938 28.328125 215.867188 L 28.140625 221.390625 C 28.125 221.914062 28.191406 222.433594 28.34375 222.941406 C 28.71875 224.1875 28.695312 224.632812 28.632812 224.882812 C 27.996094 227.40625 24.027344 230.570312 22.347656 231.816406 C 22.183594 231.9375 22.074219 232.113281 22.035156 232.316406 C 21.898438 233.046875 21.6875 234.601562 21.835938 236.765625 C 21.882812 237.445312 21.804688 238.035156 21.613281 238.511719 C 21.296875 239.289062 20.582031 239.761719 19.753906 239.761719 " fill-opacity="1" fillRule="nonzero"/><path fill="#ffffff" d="M 122.285156 185.691406 C 122.3125 185.765625 127.0625 184.863281 129.710938 184.359375 C 130.621094 184.183594 131.542969 184.402344 132.347656 184.859375 C 132.386719 184.882812 132.425781 184.898438 132.460938 184.914062 C 134.257812 185.644531 136.695312 185.902344 139.789062 184.609375 C 142.527344 183.464844 143.378906 181.121094 143.90625 179.355469 C 144.15625 178.539062 143.824219 177.65625 142.972656 177.621094 C 142.890625 177.617188 142.816406 177.613281 142.757812 177.636719 C 135.785156 180.714844 136.25 178.714844 137.003906 176.835938 C 137.21875 176.3125 133.011719 176.246094 130.308594 177.984375 C 129.949219 178.214844 128.296875 178.910156 127.371094 178.984375 C 122.835938 179.363281 119.574219 179.136719 119.574219 179.136719 L 122.285156 185.691406 " fill-opacity="1" fillRule="nonzero"/><path fill="#000000" d="M 120.488281 179.777344 L 122.667969 185.046875 C 123.316406 184.941406 125.035156 184.644531 129.597656 183.769531 C 130.597656 183.578125 131.652344 183.777344 132.648438 184.339844 C 132.660156 184.347656 132.675781 184.355469 132.6875 184.359375 C 134.757812 185.199219 137.070312 185.097656 139.554688 184.058594 C 141.996094 183.035156 142.785156 181.007812 143.335938 179.183594 C 143.425781 178.878906 143.398438 178.566406 143.265625 178.378906 C 143.191406 178.277344 143.089844 178.226562 142.949219 178.21875 L 142.929688 178.21875 C 139.144531 179.882812 137.246094 180.226562 136.398438 179.40625 C 135.78125 178.808594 135.984375 177.871094 136.25 177.128906 C 135.214844 177.035156 132.546875 177.257812 130.636719 178.488281 C 130.207031 178.761719 128.460938 179.496094 127.417969 179.582031 C 124.289062 179.84375 121.78125 179.820312 120.488281 179.777344 Z M 122.835938 185.453125 L 122.84375 185.464844 C 122.839844 185.464844 122.839844 185.460938 122.835938 185.453125 Z M 122.304688 186.289062 C 122 186.289062 121.835938 186.191406 121.726562 185.910156 L 118.648438 178.472656 L 119.613281 178.539062 C 119.648438 178.539062 122.890625 178.753906 127.320312 178.386719 C 128.144531 178.320312 129.699219 177.664062 129.984375 177.476562 C 132.40625 175.921875 136.515625 175.558594 137.34375 176.246094 C 137.59375 176.453125 137.675781 176.773438 137.5625 177.0625 C 137.078125 178.261719 137.1875 178.5 137.234375 178.542969 C 137.296875 178.609375 137.988281 179.089844 142.515625 177.089844 C 142.699219 177.007812 142.871094 177.015625 142.984375 177.023438 C 143.511719 177.042969 143.953125 177.277344 144.242188 177.679688 C 144.59375 178.171875 144.683594 178.863281 144.480469 179.527344 C 144.03125 181.035156 143.1875 183.839844 140.019531 185.164062 C 137.230469 186.328125 134.609375 186.433594 132.234375 185.46875 C 132.171875 185.445312 132.113281 185.417969 132.050781 185.382812 C 131.535156 185.085938 130.726562 184.773438 129.824219 184.949219 C 128.496094 185.203125 126.644531 185.554688 125.125 185.832031 C 124.359375 185.972656 123.675781 186.09375 123.183594 186.175781 C 122.800781 186.242188 122.519531 186.289062 122.304688 186.289062 " fill-opacity="1" fillRule="nonzero"/><path fill="#000000" d="M 129.183594 185.136719 L 127.777344 178.496094 C 127.566406 177.894531 127.011719 177.28125 126.410156 177.347656 C 105.949219 179.515625 102.949219 165.460938 96.964844 155.777344 C 96.964844 155.777344 96.550781 155.128906 95.902344 154.121094 C 93.832031 150.902344 90.945312 148.292969 87.535156 146.554688 C 86.628906 146.09375 85.664062 145.757812 84.667969 145.554688 C 82.914062 145.199219 81.328125 144.910156 80.464844 144.832031 C 78.480469 144.644531 72.800781 142.507812 60.429688 143.890625 C 55.625 144.429688 50.964844 145.894531 46.710938 148.199219 L 46.074219 148.546875 C 46.074219 148.546875 11.457031 171.316406 20.058594 218.703125 C 20.152344 219.222656 20.609375 219.601562 21.136719 219.601562 L 28.164062 219.601562 C 28.746094 219.601562 29.230469 219.085938 29.269531 218.503906 C 29.585938 213.59375 31.496094 192.363281 41.363281 180.621094 C 42.445312 179.335938 44.523438 179.730469 45.027344 181.332031 C 45.8125 183.832031 46.011719 189.152344 43.945312 200.363281 C 43.882812 200.707031 41.28125 213.929688 41.28125 213.929688 C 41.28125 213.929688 68.65625 218.621094 78.199219 216.90625 C 85.742188 215.550781 88.019531 213.695312 88.640625 212.980469 C 88.78125 212.816406 88.84375 212.601562 88.820312 212.382812 L 87.714844 202.746094 C 87.320312 199.25 86.351562 192.722656 87.496094 184.398438 C 87.679688 183.066406 87.9375 181.894531 88.246094 180.859375 C 95.632812 189.539062 100.21875 201 128.710938 186.492188 C 129.179688 186.253906 129.394531 185.734375 129.183594 185.136719 " fill-opacity="1" fillRule="nonzero"/><path fill="#ffffff" d="M 82.636719 120.402344 C 82.636719 120.402344 84.304688 122.960938 84.382812 125.058594 C 84.40625 125.617188 84.617188 127.390625 85.960938 129.347656 C 86.089844 129.535156 86.058594 129.789062 85.882812 129.941406 L 84.566406 131.089844 C 84.472656 131.167969 84.421875 131.28125 84.417969 131.402344 C 84.40625 132.140625 84.351562 134.875 84.257812 135.386719 C 84.148438 135.976562 83.667969 136.492188 83.429688 136.617188 C 82.800781 136.945312 80.105469 136.574219 80.105469 136.574219 C 80.105469 136.574219 79.378906 136.632812 77.917969 140.460938 C 76.335938 144.59375 79.5 146.195312 79.5 146.195312 C 80.6875 146.832031 80.5 148.015625 79.199219 148.414062 C 74.726562 149.785156 66.039062 151.265625 60.996094 147.457031 C 60.046875 146.742188 60.449219 145.984375 61.261719 145.800781 C 73.296875 143.136719 67.714844 130.515625 67.96875 130.453125 C 68.609375 130.292969 72.324219 126.464844 74.488281 125.390625 C 75.964844 124.65625 77.730469 125.761719 78.9375 124.640625 L 82.636719 120.402344 " fill-opacity="1" fillRule="nonzero"/><path fill="#000000" d="M 68.644531 130.753906 C 68.65625 130.789062 68.667969 130.828125 68.679688 130.867188 C 69.1875 132.589844 70.734375 137.828125 68.34375 141.878906 C 67.007812 144.144531 64.667969 145.660156 61.390625 146.386719 C 61.167969 146.4375 61.054688 146.542969 61.046875 146.589844 C 61.035156 146.632812 61.101562 146.785156 61.355469 146.976562 C 66.980469 151.222656 77.0625 148.441406 79.023438 147.839844 C 79.410156 147.722656 79.667969 147.511719 79.691406 147.296875 C 79.707031 147.109375 79.527344 146.890625 79.214844 146.726562 C 79.191406 146.710938 75.601562 144.828125 77.355469 140.246094 C 78.417969 137.472656 79.324219 136.035156 80.054688 135.976562 C 80.101562 135.972656 80.144531 135.972656 80.1875 135.980469 C 81.488281 136.160156 82.875 136.207031 83.15625 136.085938 C 83.246094 136.03125 83.59375 135.671875 83.667969 135.277344 C 83.722656 134.976562 83.785156 133.417969 83.820312 131.390625 C 83.824219 131.101562 83.953125 130.828125 84.171875 130.636719 L 85.390625 129.574219 C 83.980469 127.46875 83.804688 125.609375 83.785156 125.082031 C 83.734375 123.796875 83.015625 122.285156 82.542969 121.425781 L 79.390625 125.035156 C 79.375 125.046875 79.359375 125.0625 79.347656 125.078125 C 78.5 125.867188 77.46875 125.800781 76.558594 125.746094 C 75.902344 125.703125 75.28125 125.664062 74.753906 125.925781 C 73.550781 126.527344 71.726562 128.125 70.390625 129.292969 C 69.523438 130.050781 69.003906 130.5 68.644531 130.753906 Z M 69.773438 150.480469 C 66.578125 150.480469 63.203125 149.875 60.632812 147.933594 C 59.804688 147.308594 59.800781 146.664062 59.871094 146.335938 C 59.992188 145.789062 60.472656 145.363281 61.128906 145.214844 C 64.070312 144.566406 66.148438 143.238281 67.308594 141.269531 C 69.4375 137.671875 68 132.804688 67.527344 131.207031 C 67.34375 130.582031 67.296875 130.414062 67.441406 130.160156 C 67.519531 130.019531 67.660156 129.914062 67.820312 129.871094 C 68.011719 129.78125 68.890625 129.011719 69.601562 128.390625 C 71.0625 127.113281 72.878906 125.519531 74.222656 124.851562 C 75.035156 124.445312 75.886719 124.5 76.636719 124.546875 C 77.503906 124.601562 78.0625 124.613281 78.507812 124.21875 L 82.1875 120.007812 C 82.308594 119.867188 82.492188 119.789062 82.679688 119.804688 C 82.867188 119.820312 83.039062 119.917969 83.140625 120.078125 C 83.210938 120.1875 84.898438 122.796875 84.984375 125.039062 C 84.996094 125.359375 85.125 127.074219 86.457031 129.003906 C 86.757812 129.445312 86.683594 130.042969 86.277344 130.394531 L 85.019531 131.492188 C 84.996094 132.804688 84.941406 134.988281 84.847656 135.496094 C 84.699219 136.292969 84.082031 136.953125 83.710938 137.148438 C 83.042969 137.496094 81.203125 137.320312 80.242188 137.195312 C 80.035156 137.402344 79.4375 138.164062 78.476562 140.671875 C 77.105469 144.261719 79.660156 145.605469 79.773438 145.660156 C 80.539062 146.074219 80.953125 146.726562 80.882812 147.414062 C 80.8125 148.132812 80.25 148.71875 79.378906 148.988281 C 78.1875 149.351562 74.148438 150.480469 69.773438 150.480469 " fill-opacity="1" fillRule="nonzero"/><path fill="#000000" d="M 85.851562 129.636719 C 85.535156 129.636719 85.273438 129.390625 85.25 129.074219 C 85.230469 128.742188 85.484375 128.457031 85.816406 128.4375 C 86.09375 128.421875 86.300781 128.316406 86.460938 128.113281 C 86.910156 127.539062 86.90625 126.335938 86.832031 125.550781 L 77.980469 126.835938 C 77.652344 126.882812 77.347656 126.65625 77.300781 126.328125 C 77.253906 126.003906 77.480469 125.699219 77.808594 125.648438 L 87.257812 124.273438 C 87.574219 124.226562 87.875 124.441406 87.933594 124.753906 C 87.988281 125.035156 88.429688 127.535156 87.410156 128.847656 C 87.039062 129.324219 86.511719 129.597656 85.886719 129.632812 C 85.875 129.636719 85.863281 129.636719 85.851562 129.636719 " fill-opacity="1" fillRule="nonzero"/><path fill="#000000" d="M 77.84375 130.667969 C 76.828125 130.667969 75.476562 130.199219 74.785156 128.445312 C 74.316406 127.253906 74.507812 126.1875 75.304688 125.589844 C 76.113281 124.980469 77.332031 125.050781 78.261719 125.769531 C 78.597656 126.027344 78.972656 126.625 79.082031 126.800781 C 79.253906 127.085938 79.160156 127.453125 78.878906 127.625 C 78.59375 127.796875 78.226562 127.707031 78.054688 127.421875 C 77.894531 127.15625 77.636719 126.800781 77.527344 126.71875 C 76.96875 126.285156 76.347656 126.308594 76.027344 126.546875 C 75.683594 126.804688 75.636719 127.335938 75.902344 128.003906 C 76.632812 129.863281 78.25 129.425781 78.316406 129.40625 C 78.636719 129.316406 78.96875 129.5 79.058594 129.816406 C 79.152344 130.136719 78.964844 130.46875 78.648438 130.5625 C 78.429688 130.621094 78.152344 130.667969 77.84375 130.667969 " fill-opacity="1" fillRule="nonzero"/><path fill="#000000" d="M 86.1875 114.15625 C 85.335938 112.691406 84.417969 111.433594 81.574219 110.84375 C 79.628906 110.4375 76.429688 111.839844 74.847656 113.480469 C 74.714844 113.621094 74.507812 113.621094 74.398438 113.484375 C 74.066406 113.054688 73.28125 112.085938 72.570312 111.996094 C 70.527344 111.730469 68.398438 114.355469 67.636719 115.714844 C 67.082031 116.703125 66.136719 118.945312 65.644531 121.558594 C 65.613281 121.722656 65.464844 121.84375 65.300781 121.824219 C 64.6875 121.757812 63.449219 121.75 62.339844 122.550781 C 60.363281 123.976562 60.554688 126.101562 60.574219 126.359375 C 60.804688 129.386719 63.855469 131.65625 66.171875 132.894531 C 67.746094 133.734375 68.339844 133.859375 69.269531 134.085938 C 69.320312 134.097656 69.378906 134.09375 69.429688 134.074219 C 70.253906 134.207031 71.652344 134.285156 73.214844 133.761719 C 75.699219 132.929688 75.558594 128.824219 75.558594 128.824219 L 75.257812 128.042969 C 75.074219 127.574219 75.054688 127.042969 75.25 126.578125 C 75.851562 125.15625 77.996094 126.253906 78.074219 126.238281 C 82.140625 125.441406 83.589844 124.269531 84.332031 123.472656 C 87.007812 120.601562 88.246094 117.695312 86.1875 114.15625 " fill-opacity="1" fillRule="nonzero"/><path fill="#000000" d="M 31.324219 123.640625 C 31.167969 123.640625 31.015625 123.582031 30.898438 123.464844 C 30.664062 123.230469 30.664062 122.851562 30.898438 122.617188 L 32.292969 121.222656 C 32.527344 120.988281 32.90625 120.988281 33.140625 121.222656 C 33.375 121.457031 33.375 121.835938 33.140625 122.070312 L 31.746094 123.464844 C 31.628906 123.582031 31.476562 123.640625 31.324219 123.640625 " fill-opacity="1" fillRule="nonzero"/><path fill="#000000" d="M 36.59375 118.371094 C 36.441406 118.371094 36.289062 118.3125 36.171875 118.195312 C 35.9375 117.960938 35.9375 117.582031 36.171875 117.347656 L 37.566406 115.953125 C 37.800781 115.71875 38.179688 115.71875 38.414062 115.953125 C 38.648438 116.1875 38.648438 116.566406 38.414062 116.800781 L 37.019531 118.195312 C 36.902344 118.3125 36.75 118.371094 36.59375 118.371094 " fill-opacity="1" fillRule="nonzero"/><path fill="#000000" d="M 37.992188 123.640625 C 37.835938 123.640625 37.683594 123.582031 37.566406 123.464844 L 36.171875 122.070312 C 35.9375 121.835938 35.9375 121.457031 36.171875 121.222656 C 36.40625 120.988281 36.785156 120.988281 37.019531 121.222656 L 38.414062 122.617188 C 38.648438 122.851562 38.648438 123.230469 38.414062 123.464844 C 38.296875 123.582031 38.144531 123.640625 37.992188 123.640625 " fill-opacity="1" fillRule="nonzero"/><path fill="#000000" d="M 32.71875 118.371094 C 32.5625 118.371094 32.410156 118.3125 32.292969 118.195312 L 30.898438 116.800781 C 30.664062 116.566406 30.664062 116.1875 30.898438 115.953125 C 31.132812 115.71875 31.511719 115.71875 31.746094 115.953125 L 33.140625 117.347656 C 33.375 117.582031 33.375 117.960938 33.140625 118.195312 C 33.023438 118.3125 32.871094 118.371094 32.71875 118.371094 " fill-opacity="1" fillRule="nonzero"/><path fill="#000000" d="M 50.5 48.28125 C 49.464844 48.28125 48.625 49.125 48.625 50.15625 C 48.625 51.191406 49.464844 52.035156 50.5 52.035156 C 51.539062 52.035156 52.378906 51.191406 52.378906 50.15625 C 52.378906 49.125 51.539062 48.28125 50.5 48.28125 Z M 50.5 53.234375 C 48.804688 53.234375 47.421875 51.855469 47.421875 50.15625 C 47.421875 48.460938 48.804688 47.082031 50.5 47.082031 C 52.199219 47.082031 53.582031 48.460938 53.582031 50.15625 C 53.582031 51.855469 52.199219 53.234375 50.5 53.234375 " fill-opacity="1" fillRule="nonzero"/><path fill="#000000" d="M 61.195312 38.921875 C 60.871094 38.921875 60.605469 38.664062 60.59375 38.335938 C 60.585938 38.003906 60.847656 37.730469 61.179688 37.722656 L 63.300781 37.664062 C 63.308594 37.664062 63.3125 37.664062 63.320312 37.664062 C 63.644531 37.664062 63.910156 37.921875 63.917969 38.25 C 63.925781 38.582031 63.664062 38.855469 63.335938 38.867188 L 61.210938 38.921875 C 61.203125 38.921875 61.199219 38.921875 61.195312 38.921875 " fill-opacity="1" fillRule="nonzero"/><path fill="#000000" d="M 69.214844 38.707031 C 68.894531 38.707031 68.625 38.449219 68.617188 38.125 C 68.609375 37.792969 68.871094 37.515625 69.199219 37.507812 L 71.324219 37.453125 C 71.328125 37.453125 71.335938 37.453125 71.339844 37.453125 C 71.664062 37.453125 71.933594 37.710938 71.941406 38.039062 C 71.949219 38.367188 71.6875 38.640625 71.355469 38.652344 L 69.234375 38.707031 C 69.226562 38.707031 69.222656 38.707031 69.214844 38.707031 " fill-opacity="1" fillRule="nonzero"/><path fill="#000000" d="M 66.402344 43.855469 C 66.078125 43.855469 65.8125 43.597656 65.800781 43.273438 L 65.746094 41.152344 C 65.738281 40.820312 66 40.542969 66.328125 40.535156 C 66.335938 40.535156 66.339844 40.535156 66.347656 40.535156 C 66.667969 40.535156 66.9375 40.792969 66.945312 41.117188 L 67.003906 43.242188 C 67.011719 43.570312 66.75 43.847656 66.417969 43.855469 C 66.414062 43.855469 66.40625 43.855469 66.402344 43.855469 " fill-opacity="1" fillRule="nonzero"/><path fill="#000000" d="M 66.191406 35.835938 C 65.867188 35.835938 65.597656 35.582031 65.589844 35.253906 L 65.535156 33.132812 C 65.527344 32.800781 65.785156 32.523438 66.117188 32.515625 C 66.4375 32.5 66.726562 32.769531 66.734375 33.101562 L 66.789062 35.222656 C 66.796875 35.550781 66.539062 35.828125 66.207031 35.835938 C 66.199219 35.835938 66.195312 35.835938 66.191406 35.835938 " fill-opacity="1" fillRule="nonzero"/><path fill="#c1ff72" d="M 111.5 84.671875 C 111.5 86.894531 109.699219 88.695312 107.476562 88.695312 C 105.25 88.695312 103.449219 86.894531 103.449219 84.671875 C 103.449219 82.449219 105.25 80.648438 107.476562 80.648438 C 109.699219 80.648438 111.5 82.449219 111.5 84.671875 " fill-opacity="1" fillRule="nonzero"/></svg>