<svg xmlns="http://www.w3.org/2000/svg" xmlns:xlink="http://www.w3.org/1999/xlink" width="100" zoomAndPan="magnify" viewBox="0 0 75 30.000001" height="40" preserveAspectRatio="xMidYMid meet" version="1.0"><defs><g/></defs><g fill="#268000" fill-opacity="1"><g transform="translate(2.099265, 22.812179)"><g><path d="M 3.171875 -2.5 L 3.15625 -2.375 C 3.15625 -2.34375 3.164062 -2.316406 3.1875 -2.296875 C 3.21875 -2.273438 3.25 -2.265625 3.28125 -2.265625 C 3.320312 -2.273438 3.347656 -2.296875 3.359375 -2.328125 C 3.890625 -3.265625 4.320312 -4.082031 4.65625 -4.78125 C 4.988281 -5.488281 5.234375 -6.007812 5.390625 -6.34375 C 5.546875 -6.675781 5.671875 -6.941406 5.765625 -7.140625 C 6.015625 -7.640625 6.269531 -8.097656 6.53125 -8.515625 C 5.40625 -8.078125 4.507812 -7.8125 3.84375 -7.71875 C 3.1875 -7.632812 2.707031 -7.613281 2.40625 -7.65625 C 2.113281 -7.707031 1.914062 -7.78125 1.8125 -7.875 C 1.707031 -7.96875 1.648438 -8.066406 1.640625 -8.171875 C 1.628906 -8.285156 1.617188 -8.398438 1.609375 -8.515625 C 1.609375 -8.722656 1.71875 -8.910156 1.9375 -9.078125 C 2.15625 -9.242188 2.34375 -9.335938 2.5 -9.359375 C 2.664062 -9.378906 2.75 -9.363281 2.75 -9.3125 C 2.757812 -9.269531 2.734375 -9.203125 2.671875 -9.109375 C 2.609375 -9.023438 2.582031 -8.96875 2.59375 -8.9375 C 2.601562 -8.800781 3.101562 -8.796875 4.09375 -8.921875 C 5.082031 -9.054688 6.207031 -9.34375 7.46875 -9.78125 C 8.132812 -10.476562 8.734375 -10.863281 9.265625 -10.9375 C 9.628906 -10.976562 9.878906 -10.910156 10.015625 -10.734375 C 10.117188 -10.617188 10.175781 -10.5 10.1875 -10.375 C 10.207031 -10.257812 10.15625 -10.128906 10.03125 -9.984375 C 9.90625 -9.835938 9.726562 -9.707031 9.5 -9.59375 C 9.09375 -9.394531 8.601562 -9.207031 8.03125 -9.03125 C 7.820312 -8.6875 7.535156 -8.15625 7.171875 -7.4375 C 6.816406 -6.71875 6.566406 -6.226562 6.421875 -5.96875 C 6.285156 -5.71875 6.078125 -5.269531 5.796875 -4.625 C 5.515625 -3.988281 5.265625 -3.4375 5.046875 -2.96875 C 4.835938 -2.5 4.617188 -2.035156 4.390625 -1.578125 C 3.890625 -0.628906 3.394531 -0.125 2.90625 -0.0625 C 2.71875 -0.0390625 2.539062 -0.0703125 2.375 -0.15625 C 2.207031 -0.238281 2.109375 -0.398438 2.078125 -0.640625 C 2.046875 -0.890625 2.140625 -1.210938 2.359375 -1.609375 C 2.578125 -2.015625 2.738281 -2.273438 2.84375 -2.390625 C 2.957031 -2.515625 3.035156 -2.578125 3.078125 -2.578125 C 3.128906 -2.585938 3.160156 -2.5625 3.171875 -2.5 Z M 3.171875 -2.5 "/></g></g></g><g fill="#268000" fill-opacity="1"><g transform="translate(9.577737, 21.828547)"><g><path d="M 4.1875 -5.453125 C 4.226562 -5.179688 4.144531 -4.921875 3.9375 -4.671875 C 3.738281 -4.421875 3.492188 -4.273438 3.203125 -4.234375 C 3.109375 -4.222656 3.039062 -4.238281 3 -4.28125 C 2.96875 -4.320312 2.945312 -4.378906 2.9375 -4.453125 C 2.925781 -4.523438 2.929688 -4.597656 2.953125 -4.671875 C 2.796875 -4.609375 2.628906 -4.507812 2.453125 -4.375 C 2.285156 -4.238281 2.078125 -4.046875 1.828125 -3.796875 C 1.578125 -3.546875 1.460938 -3.367188 1.484375 -3.265625 C 1.484375 -3.234375 1.535156 -3.222656 1.640625 -3.234375 C 1.742188 -3.242188 1.890625 -3.300781 2.078125 -3.40625 C 2.273438 -3.507812 2.414062 -3.566406 2.5 -3.578125 C 2.59375 -3.585938 2.648438 -3.585938 2.671875 -3.578125 C 2.742188 -3.554688 2.816406 -3.492188 2.890625 -3.390625 C 2.960938 -3.296875 3.003906 -3.222656 3.015625 -3.171875 C 3.023438 -3.117188 2.976562 -3.039062 2.875 -2.9375 C 2.769531 -2.832031 2.648438 -2.742188 2.515625 -2.671875 C 2.390625 -2.597656 2.304688 -2.546875 2.265625 -2.515625 C 1.421875 -1.890625 1.007812 -1.476562 1.03125 -1.28125 C 1.082031 -0.957031 1.394531 -0.832031 1.96875 -0.90625 C 2.332031 -0.957031 2.679688 -1.113281 3.015625 -1.375 C 3.296875 -1.613281 3.550781 -1.851562 3.78125 -2.09375 C 4.007812 -2.34375 4.148438 -2.492188 4.203125 -2.546875 C 4.265625 -2.597656 4.3125 -2.628906 4.34375 -2.640625 C 4.457031 -2.648438 4.53125 -2.53125 4.5625 -2.28125 C 4.59375 -2.03125 4.597656 -1.863281 4.578125 -1.78125 C 4.554688 -1.695312 4.492188 -1.59375 4.390625 -1.46875 C 3.554688 -0.59375 2.726562 -0.101562 1.90625 0 C 1.46875 0.0625 1.113281 0.0507812 0.84375 -0.03125 C 0.332031 -0.195312 0.046875 -0.5 -0.015625 -0.9375 C -0.0859375 -1.539062 0.257812 -2.046875 1.03125 -2.453125 C 0.851562 -2.503906 0.734375 -2.582031 0.671875 -2.6875 C 0.609375 -2.789062 0.5625 -2.96875 0.53125 -3.21875 C 0.5 -3.476562 0.582031 -3.765625 0.78125 -4.078125 C 0.976562 -4.398438 1.234375 -4.664062 1.546875 -4.875 C 2.253906 -5.394531 2.90625 -5.691406 3.5 -5.765625 C 3.644531 -5.785156 3.789062 -5.769531 3.9375 -5.71875 C 4.09375 -5.664062 4.175781 -5.578125 4.1875 -5.453125 Z M 4.1875 -5.453125 "/></g></g></g><g fill="#268000" fill-opacity="1"><g transform="translate(13.764651, 21.277849)"><g><path d="M 4.328125 -6.484375 C 4.378906 -6.523438 4.453125 -6.550781 4.546875 -6.5625 C 4.648438 -6.570312 4.78125 -6.53125 4.9375 -6.4375 C 5.09375 -6.351562 5.175781 -6.269531 5.1875 -6.1875 C 5.195312 -6.113281 5.175781 -6.046875 5.125 -5.984375 C 5.082031 -5.921875 4.910156 -5.71875 4.609375 -5.375 C 4.304688 -5.03125 3.960938 -4.628906 3.578125 -4.171875 C 3.203125 -3.710938 2.898438 -3.351562 2.671875 -3.09375 C 2.703125 -2.664062 2.742188 -2.234375 2.796875 -1.796875 C 2.859375 -1.359375 2.945312 -1.148438 3.0625 -1.171875 C 3.300781 -1.234375 3.578125 -1.46875 3.890625 -1.875 C 4.003906 -2.019531 4.113281 -2.171875 4.21875 -2.328125 C 4.320312 -2.484375 4.382812 -2.578125 4.40625 -2.609375 C 4.4375 -2.640625 4.472656 -2.65625 4.515625 -2.65625 C 4.585938 -2.664062 4.640625 -2.625 4.671875 -2.53125 C 4.703125 -2.445312 4.726562 -2.316406 4.75 -2.140625 C 4.78125 -1.972656 4.785156 -1.863281 4.765625 -1.8125 C 4.679688 -1.5625 4.445312 -1.234375 4.0625 -0.828125 C 3.6875 -0.421875 3.304688 -0.191406 2.921875 -0.140625 C 2.296875 -0.0546875 1.925781 -0.445312 1.8125 -1.3125 C 1.789062 -1.488281 1.78125 -1.707031 1.78125 -1.96875 C 1.144531 -1.125 0.648438 -0.390625 0.296875 0.234375 C 0.273438 0.285156 0.207031 0.316406 0.09375 0.328125 C -0.0078125 0.347656 -0.132812 0.3125 -0.28125 0.21875 C -0.4375 0.125 -0.519531 0.0351562 -0.53125 -0.046875 C -0.539062 -0.140625 -0.539062 -0.210938 -0.53125 -0.265625 C -0.507812 -0.441406 -0.285156 -0.835938 0.140625 -1.453125 C 0.578125 -2.066406 1.085938 -2.691406 1.671875 -3.328125 C 1.609375 -3.691406 1.5625 -3.972656 1.53125 -4.171875 C 1.507812 -4.378906 1.488281 -4.484375 1.46875 -4.484375 C 1.445312 -4.484375 1.375 -4.410156 1.25 -4.265625 C 1.132812 -4.117188 1.035156 -4.039062 0.953125 -4.03125 C 0.878906 -4.019531 0.796875 -4.082031 0.703125 -4.21875 C 0.617188 -4.351562 0.570312 -4.445312 0.5625 -4.5 C 0.539062 -4.6875 0.675781 -4.953125 0.96875 -5.296875 C 1.257812 -5.640625 1.546875 -5.832031 1.828125 -5.875 C 1.898438 -5.875 2.003906 -5.84375 2.140625 -5.78125 C 2.273438 -5.726562 2.359375 -5.648438 2.390625 -5.546875 C 2.472656 -5.109375 2.535156 -4.738281 2.578125 -4.4375 C 3.160156 -5.257812 3.742188 -5.941406 4.328125 -6.484375 Z M 4.328125 -6.484375 "/></g></g></g><g fill="#268000" fill-opacity="1"><g transform="translate(18.660119, 20.633955)"><g><path d="M 3.734375 -8.9375 L 4.015625 -8.90625 C 4.054688 -8.90625 4.09375 -8.890625 4.125 -8.859375 C 4.164062 -8.828125 4.1875 -8.796875 4.1875 -8.765625 C 4.1875 -8.734375 4.148438 -8.632812 4.078125 -8.46875 C 4.003906 -8.300781 3.914062 -8.113281 3.8125 -7.90625 C 3.71875 -7.695312 3.671875 -7.585938 3.671875 -7.578125 C 4.003906 -7.640625 4.238281 -7.675781 4.375 -7.6875 C 4.519531 -7.707031 4.617188 -7.710938 4.671875 -7.703125 C 4.734375 -7.691406 4.800781 -7.644531 4.875 -7.5625 C 4.957031 -7.476562 5.03125 -7.421875 5.09375 -7.390625 C 5.15625 -7.359375 5.191406 -7.296875 5.203125 -7.203125 C 5.210938 -7.117188 5.164062 -7.035156 5.0625 -6.953125 C 4.96875 -6.878906 4.859375 -6.832031 4.734375 -6.8125 C 3.742188 -6.570312 3.195312 -6.445312 3.09375 -6.4375 C 2.8125 -5.84375 2.429688 -4.941406 1.953125 -3.734375 C 1.472656 -2.523438 1.238281 -1.773438 1.25 -1.484375 C 1.25 -1.359375 1.253906 -1.253906 1.265625 -1.171875 C 1.285156 -1.015625 1.382812 -0.945312 1.5625 -0.96875 C 1.738281 -0.988281 1.925781 -1.078125 2.125 -1.234375 C 2.320312 -1.398438 2.492188 -1.570312 2.640625 -1.75 C 3.078125 -2.25 3.3125 -2.5 3.34375 -2.5 C 3.457031 -2.519531 3.539062 -2.335938 3.59375 -1.953125 C 3.613281 -1.734375 3.539062 -1.53125 3.375 -1.34375 C 2.976562 -0.914062 2.644531 -0.582031 2.375 -0.34375 C 2.113281 -0.113281 1.832031 0.015625 1.53125 0.046875 C 1.46875 0.0546875 1.40625 0.0625 1.34375 0.0625 C 1 0.03125 0.734375 -0.0664062 0.546875 -0.234375 C 0.359375 -0.398438 0.242188 -0.640625 0.203125 -0.953125 C 0.160156 -1.265625 0.203125 -1.65625 0.328125 -2.125 C 0.460938 -2.601562 0.632812 -3.125 0.84375 -3.6875 C 1.207031 -4.570312 1.578125 -5.414062 1.953125 -6.21875 L 1.703125 -6.15625 C 1.210938 -6.03125 0.925781 -5.960938 0.84375 -5.953125 L 0.78125 -5.953125 C 0.65625 -5.929688 0.523438 -5.9375 0.390625 -5.96875 C 0.265625 -6 0.195312 -6.050781 0.1875 -6.125 C 0.1875 -6.195312 0.210938 -6.273438 0.265625 -6.359375 C 0.328125 -6.441406 0.359375 -6.492188 0.359375 -6.515625 C 0.378906 -6.628906 0.476562 -6.753906 0.65625 -6.890625 C 0.84375 -7.035156 0.984375 -7.113281 1.078125 -7.125 C 1.179688 -7.144531 1.28125 -7.160156 1.375 -7.171875 C 1.46875 -7.191406 1.566406 -7.210938 1.671875 -7.234375 C 1.785156 -7.253906 1.867188 -7.269531 1.921875 -7.28125 L 2.515625 -7.390625 C 2.804688 -7.972656 3.007812 -8.347656 3.125 -8.515625 C 3.238281 -8.691406 3.300781 -8.785156 3.3125 -8.796875 C 3.332031 -8.816406 3.375 -8.832031 3.4375 -8.84375 Z M 3.734375 -8.9375 "/></g></g></g><g fill="#268000" fill-opacity="1"><g transform="translate(21.494338, 20.261175)"><g><path d="M 4.125 -5.53125 C 4.257812 -5.550781 4.398438 -5.507812 4.546875 -5.40625 C 4.703125 -5.3125 4.796875 -5.144531 4.828125 -4.90625 C 4.859375 -4.664062 4.8125 -4.347656 4.6875 -3.953125 C 4.570312 -3.554688 4.394531 -3.140625 4.15625 -2.703125 C 3.914062 -2.273438 3.640625 -1.863281 3.328125 -1.46875 C 3.023438 -1.082031 2.679688 -0.75 2.296875 -0.46875 C 1.921875 -0.1875 1.566406 -0.0234375 1.234375 0.015625 C 0.910156 0.0546875 0.632812 -0.0078125 0.40625 -0.1875 C 0.1875 -0.375 0.0507812 -0.648438 0 -1.015625 C -0.0390625 -1.390625 -0.00390625 -1.8125 0.109375 -2.28125 C 0.234375 -2.757812 0.414062 -3.191406 0.65625 -3.578125 C 0.90625 -3.960938 1.175781 -4.316406 1.46875 -4.640625 C 2.09375 -5.296875 2.671875 -5.660156 3.203125 -5.734375 C 3.441406 -5.765625 3.632812 -5.722656 3.78125 -5.609375 C 3.820312 -5.585938 3.84375 -5.5625 3.84375 -5.53125 L 3.859375 -5.484375 C 3.910156 -5.503906 4 -5.519531 4.125 -5.53125 Z M 3.59375 -4.609375 L 3.546875 -4.59375 C 3.398438 -4.570312 3.3125 -4.671875 3.28125 -4.890625 C 2.96875 -4.742188 2.660156 -4.519531 2.359375 -4.21875 C 2.054688 -3.914062 1.789062 -3.566406 1.5625 -3.171875 C 1.09375 -2.398438 0.890625 -1.769531 0.953125 -1.28125 C 0.984375 -1.039062 1.085938 -0.929688 1.265625 -0.953125 C 1.441406 -0.984375 1.691406 -1.132812 2.015625 -1.40625 C 2.335938 -1.6875 2.640625 -2.0625 2.921875 -2.53125 C 3.203125 -3 3.40625 -3.40625 3.53125 -3.75 C 3.664062 -4.09375 3.722656 -4.320312 3.703125 -4.4375 C 3.691406 -4.550781 3.65625 -4.609375 3.59375 -4.609375 Z M 3.59375 -4.609375 "/></g></g></g><g fill="#268000" fill-opacity="1"><g transform="translate(26.325392, 19.625754)"><g/></g></g><g fill="#268000" fill-opacity="1"><g transform="translate(29.06299, 19.265682)"><g><path d="M 4.40625 -2.03125 C 4.601562 -2.195312 4.726562 -2.3125 4.78125 -2.375 C 4.84375 -2.4375 4.910156 -2.507812 4.984375 -2.59375 C 5.066406 -2.6875 5.132812 -2.738281 5.1875 -2.75 C 5.28125 -2.757812 5.335938 -2.664062 5.359375 -2.46875 C 5.390625 -2.269531 5.320312 -2.046875 5.15625 -1.796875 C 5 -1.546875 4.789062 -1.320312 4.53125 -1.125 C 4.269531 -0.9375 3.984375 -0.757812 3.671875 -0.59375 C 3.054688 -0.28125 2.523438 -0.09375 2.078125 -0.03125 C 1.628906 0.0195312 1.207031 -0.0703125 0.8125 -0.3125 C 0.414062 -0.5625 0.1875 -0.921875 0.125 -1.390625 C 0.0625 -1.867188 0.113281 -2.359375 0.28125 -2.859375 C 0.445312 -3.359375 0.691406 -3.8125 1.015625 -4.21875 C 1.347656 -4.632812 1.742188 -4.984375 2.203125 -5.265625 C 2.671875 -5.554688 3.144531 -5.734375 3.625 -5.796875 C 3.851562 -5.828125 4.066406 -5.785156 4.265625 -5.671875 C 4.472656 -5.566406 4.59375 -5.398438 4.625 -5.171875 C 4.65625 -4.941406 4.578125 -4.648438 4.390625 -4.296875 C 4.203125 -3.941406 3.988281 -3.75 3.75 -3.71875 C 3.476562 -3.6875 3.328125 -3.800781 3.296875 -4.0625 C 3.285156 -4.132812 3.332031 -4.265625 3.4375 -4.453125 C 3.539062 -4.648438 3.585938 -4.78125 3.578125 -4.84375 C 3.566406 -4.90625 3.539062 -4.929688 3.5 -4.921875 C 3.257812 -4.890625 3.015625 -4.773438 2.765625 -4.578125 C 2.515625 -4.378906 2.289062 -4.171875 2.09375 -3.953125 C 1.90625 -3.742188 1.726562 -3.515625 1.5625 -3.265625 C 1.1875 -2.734375 1.03125 -2.203125 1.09375 -1.671875 C 1.125 -1.460938 1.21875 -1.289062 1.375 -1.15625 C 1.53125 -1.019531 1.769531 -0.972656 2.09375 -1.015625 C 2.414062 -1.054688 2.734375 -1.132812 3.046875 -1.25 C 3.359375 -1.375 3.613281 -1.492188 3.8125 -1.609375 C 4.007812 -1.722656 4.207031 -1.863281 4.40625 -2.03125 Z M 4.40625 -2.03125 "/></g></g></g><g fill="#268000" fill-opacity="1"><g transform="translate(33.87472, 18.632803)"><g><path d="M 4.125 -5.53125 C 4.257812 -5.550781 4.398438 -5.507812 4.546875 -5.40625 C 4.703125 -5.3125 4.796875 -5.144531 4.828125 -4.90625 C 4.859375 -4.664062 4.8125 -4.347656 4.6875 -3.953125 C 4.570312 -3.554688 4.394531 -3.140625 4.15625 -2.703125 C 3.914062 -2.273438 3.640625 -1.863281 3.328125 -1.46875 C 3.023438 -1.082031 2.679688 -0.75 2.296875 -0.46875 C 1.921875 -0.1875 1.566406 -0.0234375 1.234375 0.015625 C 0.910156 0.0546875 0.632812 -0.0078125 0.40625 -0.1875 C 0.1875 -0.375 0.0507812 -0.648438 0 -1.015625 C -0.0390625 -1.390625 -0.00390625 -1.8125 0.109375 -2.28125 C 0.234375 -2.757812 0.414062 -3.191406 0.65625 -3.578125 C 0.90625 -3.960938 1.175781 -4.316406 1.46875 -4.640625 C 2.09375 -5.296875 2.671875 -5.660156 3.203125 -5.734375 C 3.441406 -5.765625 3.632812 -5.722656 3.78125 -5.609375 C 3.820312 -5.585938 3.84375 -5.5625 3.84375 -5.53125 L 3.859375 -5.484375 C 3.910156 -5.503906 4 -5.519531 4.125 -5.53125 Z M 3.59375 -4.609375 L 3.546875 -4.59375 C 3.398438 -4.570312 3.3125 -4.671875 3.28125 -4.890625 C 2.96875 -4.742188 2.660156 -4.519531 2.359375 -4.21875 C 2.054688 -3.914062 1.789062 -3.566406 1.5625 -3.171875 C 1.09375 -2.398438 0.890625 -1.769531 0.953125 -1.28125 C 0.984375 -1.039062 1.085938 -0.929688 1.265625 -0.953125 C 1.441406 -0.984375 1.691406 -1.132812 2.015625 -1.40625 C 2.335938 -1.6875 2.640625 -2.0625 2.921875 -2.53125 C 3.203125 -3 3.40625 -3.40625 3.53125 -3.75 C 3.664062 -4.09375 3.722656 -4.320312 3.703125 -4.4375 C 3.691406 -4.550781 3.65625 -4.609375 3.59375 -4.609375 Z M 3.59375 -4.609375 "/></g></g></g><g fill="#268000" fill-opacity="1"><g transform="translate(38.705774, 17.997382)"><g><path d="M 3.078125 -7.390625 L 3.203125 -7.40625 C 3.265625 -7.40625 3.320312 -7.351562 3.375 -7.25 C 3.425781 -7.144531 3.453125 -7.070312 3.453125 -7.03125 C 3.460938 -6.988281 3.429688 -6.914062 3.359375 -6.8125 L 1.890625 -3.765625 C 2.453125 -4.503906 3.046875 -5.0625 3.671875 -5.4375 C 3.910156 -5.582031 4.132812 -5.664062 4.34375 -5.6875 C 4.5625 -5.71875 4.738281 -5.671875 4.875 -5.546875 C 5.019531 -5.429688 5.101562 -5.273438 5.125 -5.078125 C 5.15625 -4.878906 5.132812 -4.625 5.0625 -4.3125 C 5 -4 4.890625 -3.660156 4.734375 -3.296875 C 4.585938 -2.941406 4.398438 -2.578125 4.171875 -2.203125 C 3.953125 -1.828125 3.707031 -1.484375 3.4375 -1.171875 C 3.175781 -0.859375 2.878906 -0.585938 2.546875 -0.359375 C 2.222656 -0.140625 1.925781 -0.015625 1.65625 0.015625 C 1.125 0.0859375 0.828125 -0.125 0.765625 -0.625 C 0.347656 0.207031 -0.113281 1.191406 -0.625 2.328125 C -1.144531 3.472656 -1.421875 4.078125 -1.453125 4.140625 C -1.492188 4.210938 -1.53125 4.25 -1.5625 4.25 C -1.601562 4.257812 -1.660156 4.25 -1.734375 4.21875 C -1.804688 4.1875 -1.882812 4.128906 -1.96875 4.046875 C -2.0625 3.972656 -2.117188 3.847656 -2.140625 3.671875 C -2.160156 3.492188 -2.128906 3.304688 -2.046875 3.109375 C -1.597656 2.078125 -0.722656 0.117188 0.578125 -2.765625 C 1.890625 -5.648438 2.609375 -7.148438 2.734375 -7.265625 C 2.804688 -7.328125 2.878906 -7.359375 2.953125 -7.359375 Z M 4.03125 -4.484375 C 4.019531 -4.578125 3.972656 -4.617188 3.890625 -4.609375 C 3.660156 -4.578125 3.21875 -4.15625 2.5625 -3.34375 C 1.90625 -2.53125 1.394531 -1.800781 1.03125 -1.15625 C 1.15625 -1.039062 1.328125 -1 1.546875 -1.03125 C 1.765625 -1.0625 2.03125 -1.210938 2.34375 -1.484375 C 2.664062 -1.765625 2.953125 -2.085938 3.203125 -2.453125 C 3.460938 -2.816406 3.671875 -3.1875 3.828125 -3.5625 C 3.992188 -3.945312 4.0625 -4.253906 4.03125 -4.484375 Z M 4.03125 -4.484375 "/></g></g></g><g fill="#268000" fill-opacity="1"><g transform="translate(43.86534, 17.318752)"><g><path d="M 3.65625 -7.6875 C 3.695312 -7.4375 3.617188 -7.171875 3.421875 -6.890625 C 3.234375 -6.617188 3.015625 -6.46875 2.765625 -6.4375 C 2.515625 -6.40625 2.367188 -6.515625 2.328125 -6.765625 C 2.296875 -7.023438 2.375 -7.285156 2.5625 -7.546875 C 2.75 -7.804688 2.972656 -7.953125 3.234375 -7.984375 C 3.347656 -8.003906 3.441406 -7.988281 3.515625 -7.9375 C 3.597656 -7.882812 3.644531 -7.800781 3.65625 -7.6875 Z M 3.359375 -1.921875 C 3.367188 -1.785156 3.367188 -1.691406 3.359375 -1.640625 C 3.203125 -1.179688 2.910156 -0.785156 2.484375 -0.453125 C 2.054688 -0.128906 1.675781 0.0507812 1.34375 0.09375 C 1.007812 0.132812 0.703125 0.0546875 0.421875 -0.140625 C 0.140625 -0.335938 -0.015625 -0.550781 -0.046875 -0.78125 C -0.078125 -1.019531 -0.00390625 -1.378906 0.171875 -1.859375 C 0.359375 -2.347656 0.539062 -2.796875 0.71875 -3.203125 C 0.90625 -3.617188 1 -3.84375 1 -3.875 C 1 -3.90625 0.945312 -3.960938 0.84375 -4.046875 C 0.738281 -4.128906 0.679688 -4.191406 0.671875 -4.234375 C 0.671875 -4.273438 0.742188 -4.40625 0.890625 -4.625 C 1.046875 -4.84375 1.242188 -5.0625 1.484375 -5.28125 C 1.722656 -5.5 1.90625 -5.617188 2.03125 -5.640625 C 2.164062 -5.660156 2.296875 -5.613281 2.421875 -5.5 C 2.546875 -5.382812 2.613281 -5.273438 2.625 -5.171875 C 2.632812 -5.078125 2.242188 -4.085938 1.453125 -2.203125 C 1.441406 -2.171875 1.410156 -2.109375 1.359375 -2.015625 C 1.316406 -1.921875 1.28125 -1.84375 1.25 -1.78125 C 1.226562 -1.71875 1.203125 -1.640625 1.171875 -1.546875 C 1.109375 -1.359375 1.082031 -1.207031 1.09375 -1.09375 C 1.113281 -0.957031 1.222656 -0.898438 1.421875 -0.921875 C 1.628906 -0.953125 1.828125 -1.046875 2.015625 -1.203125 C 2.210938 -1.367188 2.378906 -1.546875 2.515625 -1.734375 C 2.859375 -2.222656 3.054688 -2.46875 3.109375 -2.46875 C 3.222656 -2.488281 3.304688 -2.304688 3.359375 -1.921875 Z M 3.359375 -1.921875 "/></g></g></g><g fill="#268000" fill-opacity="1"><g transform="translate(46.538523, 16.967152)"><g><path d="M 4.671875 -5.59375 C 5.003906 -5.632812 5.1875 -5.546875 5.21875 -5.328125 C 5.226562 -5.210938 5.207031 -5.117188 5.15625 -5.046875 C 5.113281 -4.984375 5.019531 -4.78125 4.875 -4.4375 C 4.726562 -4.101562 4.578125 -3.675781 4.421875 -3.15625 C 4.273438 -2.632812 4.191406 -2.195312 4.171875 -1.84375 C 4.160156 -1.789062 4.160156 -1.722656 4.171875 -1.640625 C 4.203125 -1.410156 4.28125 -1.304688 4.40625 -1.328125 C 4.53125 -1.347656 4.671875 -1.425781 4.828125 -1.5625 C 4.992188 -1.707031 5.132812 -1.859375 5.25 -2.015625 C 5.375 -2.171875 5.492188 -2.332031 5.609375 -2.5 C 5.722656 -2.664062 5.789062 -2.757812 5.8125 -2.78125 C 5.832031 -2.8125 5.867188 -2.832031 5.921875 -2.84375 C 6.003906 -2.851562 6.0625 -2.796875 6.09375 -2.671875 C 6.125 -2.554688 6.144531 -2.429688 6.15625 -2.296875 C 6.175781 -2.160156 6.179688 -2.0625 6.171875 -2 C 6.078125 -1.75 5.835938 -1.421875 5.453125 -1.015625 C 5.078125 -0.609375 4.71875 -0.378906 4.375 -0.328125 C 4.03125 -0.285156 3.757812 -0.359375 3.5625 -0.546875 C 3.375 -0.742188 3.257812 -0.96875 3.21875 -1.21875 C 3.1875 -1.476562 3.207031 -1.707031 3.28125 -1.90625 C 2.96875 -1.414062 2.601562 -0.972656 2.1875 -0.578125 C 1.78125 -0.191406 1.429688 0.015625 1.140625 0.046875 C 0.847656 0.0859375 0.59375 0.0351562 0.375 -0.109375 C 0.113281 -0.296875 -0.0390625 -0.582031 -0.09375 -0.96875 C -0.144531 -1.363281 -0.109375 -1.769531 0.015625 -2.1875 C 0.140625 -2.601562 0.320312 -2.992188 0.5625 -3.359375 C 0.800781 -3.722656 1.070312 -4.054688 1.375 -4.359375 C 2.007812 -5.015625 2.628906 -5.382812 3.234375 -5.46875 C 3.472656 -5.5 3.664062 -5.484375 3.8125 -5.421875 C 3.96875 -5.359375 4.078125 -5.269531 4.140625 -5.15625 C 4.222656 -5.320312 4.296875 -5.429688 4.359375 -5.484375 C 4.421875 -5.535156 4.523438 -5.570312 4.671875 -5.59375 Z M 3.921875 -4.78125 C 3.179688 -4.675781 2.472656 -4.160156 1.796875 -3.234375 C 1.554688 -2.921875 1.34375 -2.539062 1.15625 -2.09375 C 0.96875 -1.65625 0.882812 -1.359375 0.90625 -1.203125 C 0.925781 -1.054688 0.984375 -0.988281 1.078125 -1 C 1.191406 -1.007812 1.492188 -1.285156 1.984375 -1.828125 C 2.472656 -2.378906 2.789062 -2.785156 2.9375 -3.046875 C 3.101562 -3.304688 3.429688 -3.882812 3.921875 -4.78125 Z M 3.921875 -4.78125 "/></g></g></g><g fill="#268000" fill-opacity="1"><g transform="translate(51.910656, 16.260564)"><g><path d="M 7.21875 -10.78125 C 7.300781 -10.800781 7.367188 -10.785156 7.421875 -10.734375 C 7.472656 -10.691406 7.5 -10.640625 7.5 -10.578125 C 7.507812 -10.523438 7.484375 -10.421875 7.421875 -10.265625 C 7.359375 -10.109375 7.207031 -9.769531 6.96875 -9.25 C 6.738281 -8.726562 6.5625 -8.316406 6.4375 -8.015625 C 5.664062 -6.304688 5.070312 -4.863281 4.65625 -3.6875 C 4.25 -2.519531 4.0625 -1.820312 4.09375 -1.59375 L 4.109375 -1.546875 C 4.128906 -1.378906 4.203125 -1.300781 4.328125 -1.3125 C 4.453125 -1.332031 4.597656 -1.410156 4.765625 -1.546875 C 4.929688 -1.679688 5.070312 -1.828125 5.1875 -1.984375 C 5.3125 -2.148438 5.4375 -2.316406 5.5625 -2.484375 C 5.6875 -2.648438 5.757812 -2.75 5.78125 -2.78125 C 5.8125 -2.8125 5.847656 -2.832031 5.890625 -2.84375 C 5.960938 -2.851562 6.015625 -2.8125 6.046875 -2.71875 C 6.085938 -2.625 6.117188 -2.492188 6.140625 -2.328125 C 6.160156 -2.160156 6.160156 -2.050781 6.140625 -2 C 6.046875 -1.738281 5.804688 -1.40625 5.421875 -1 C 5.046875 -0.601562 4.671875 -0.378906 4.296875 -0.328125 C 3.648438 -0.242188 3.289062 -0.476562 3.21875 -1.03125 C 3.175781 -1.363281 3.25 -1.820312 3.4375 -2.40625 C 3.132812 -1.914062 2.828125 -1.488281 2.515625 -1.125 C 1.921875 -0.445312 1.382812 -0.0703125 0.90625 0 C 0.625 0.03125 0.40625 -0.0390625 0.25 -0.21875 C 0.09375 -0.40625 -0.00390625 -0.675781 -0.046875 -1.03125 C -0.0976562 -1.394531 -0.0195312 -1.847656 0.1875 -2.390625 C 0.394531 -2.929688 0.6875 -3.429688 1.0625 -3.890625 C 1.4375 -4.359375 1.863281 -4.757812 2.34375 -5.09375 C 2.820312 -5.4375 3.28125 -5.640625 3.71875 -5.703125 C 3.851562 -5.722656 4.023438 -5.660156 4.234375 -5.515625 C 4.328125 -5.734375 4.503906 -6.160156 4.765625 -6.796875 C 5.585938 -8.703125 6.144531 -9.875 6.4375 -10.3125 C 6.582031 -10.582031 6.84375 -10.738281 7.21875 -10.78125 Z M 3.921875 -4.859375 C 3.316406 -4.640625 2.773438 -4.269531 2.296875 -3.75 C 1.828125 -3.238281 1.488281 -2.726562 1.28125 -2.21875 C 1.070312 -1.707031 0.976562 -1.382812 1 -1.25 C 1.019531 -1.113281 1.0625 -1.046875 1.125 -1.046875 C 1.382812 -1.085938 1.945312 -1.75 2.8125 -3.03125 C 3.25 -3.65625 3.617188 -4.265625 3.921875 -4.859375 Z M 3.921875 -4.859375 "/></g></g></g><g fill="#268000" fill-opacity="1"><g transform="translate(57.340761, 15.546351)"><g><path d="M 4.125 -5.53125 C 4.257812 -5.550781 4.398438 -5.507812 4.546875 -5.40625 C 4.703125 -5.3125 4.796875 -5.144531 4.828125 -4.90625 C 4.859375 -4.664062 4.8125 -4.347656 4.6875 -3.953125 C 4.570312 -3.554688 4.394531 -3.140625 4.15625 -2.703125 C 3.914062 -2.273438 3.640625 -1.863281 3.328125 -1.46875 C 3.023438 -1.082031 2.679688 -0.75 2.296875 -0.46875 C 1.921875 -0.1875 1.566406 -0.0234375 1.234375 0.015625 C 0.910156 0.0546875 0.632812 -0.0078125 0.40625 -0.1875 C 0.1875 -0.375 0.0507812 -0.648438 0 -1.015625 C -0.0390625 -1.390625 -0.00390625 -1.8125 0.109375 -2.28125 C 0.234375 -2.757812 0.414062 -3.191406 0.65625 -3.578125 C 0.90625 -3.960938 1.175781 -4.316406 1.46875 -4.640625 C 2.09375 -5.296875 2.671875 -5.660156 3.203125 -5.734375 C 3.441406 -5.765625 3.632812 -5.722656 3.78125 -5.609375 C 3.820312 -5.585938 3.84375 -5.5625 3.84375 -5.53125 L 3.859375 -5.484375 C 3.910156 -5.503906 4 -5.519531 4.125 -5.53125 Z M 3.59375 -4.609375 L 3.546875 -4.59375 C 3.398438 -4.570312 3.3125 -4.671875 3.28125 -4.890625 C 2.96875 -4.742188 2.660156 -4.519531 2.359375 -4.21875 C 2.054688 -3.914062 1.789062 -3.566406 1.5625 -3.171875 C 1.09375 -2.398438 0.890625 -1.769531 0.953125 -1.28125 C 0.984375 -1.039062 1.085938 -0.929688 1.265625 -0.953125 C 1.441406 -0.984375 1.691406 -1.132812 2.015625 -1.40625 C 2.335938 -1.6875 2.640625 -2.0625 2.921875 -2.53125 C 3.203125 -3 3.40625 -3.40625 3.53125 -3.75 C 3.664062 -4.09375 3.722656 -4.320312 3.703125 -4.4375 C 3.691406 -4.550781 3.65625 -4.609375 3.59375 -4.609375 Z M 3.59375 -4.609375 "/></g></g></g><g fill="#000000" fill-opacity="1"><g transform="translate(61.650793, 13.037544)"><g/></g></g><g fill="#000000" fill-opacity="1"><g transform="translate(64.570223, 12.735015)"><g/></g></g></svg>